<svg width="127" height="38" viewBox="0 0 127 38" fill="none" xmlns="http://www.w3.org/2000/svg">
<g clip-path="url(#clip0_285_3776)">
<path d="M23.077 37.9994C17.2864 37.8965 11.6185 36.288 6.71122 32.2859C3.96315 30.034 1.85302 27.2544 0.761151 23.7414C-0.833712 18.5812 0.110938 13.82 3.16571 9.53482C6.18369 5.30116 10.3058 2.71464 15.0781 1.29913C22.2427 -0.849872 29.2724 -0.373746 36.0199 3.04921C39.7862 4.95372 42.9269 7.68179 44.902 11.6066C47.92 17.5775 47.3311 23.3296 43.4789 28.6571C40.2769 33.0966 35.8359 35.5802 30.7936 36.9957C28.3891 37.6777 25.9109 37.9608 23.077 37.9994ZM35.4678 22.2229C33.7993 21.5152 32.18 21.1935 30.4747 21.5538C28.3645 21.9913 26.7942 23.8315 26.7697 25.9033C26.7451 27.8335 28.1805 29.5707 30.1925 30.0211C32.5971 30.5744 35.8849 29.1332 37.2467 26.9585C37.4062 26.7011 37.3694 26.5724 37.1854 26.3665C36.1548 25.2856 35.2225 25.2856 34.2533 26.418C33.5049 27.293 32.5971 27.8592 31.4929 28.078C29.5668 28.464 28.1069 27.1772 28.3768 25.3371C28.5486 24.1918 29.4932 23.2524 30.7691 22.9822C32.5357 22.609 34.0447 23.2653 35.3819 24.3591C36.5106 25.2727 37.5534 26.315 38.6453 27.2802C39.4918 28.0265 40.4978 28.3482 41.6019 28.2582C41.7737 28.2453 42.0068 28.3225 42.0926 28.1037C42.154 27.9364 41.9945 27.782 41.8841 27.6662C41.4302 27.2158 41.5774 26.8684 41.8963 26.3665C44.7303 21.8884 45.0125 17.2558 42.4607 12.5589C40.51 8.96862 37.4921 6.61373 33.9343 5.01806C27.7879 2.26425 21.5066 2.07123 15.1272 4.10441C14.8696 4.18162 14.6365 4.2717 14.3543 4.2331C13.0907 4.11728 11.8761 4.37465 10.6738 4.72209C10.1954 4.86364 10.269 5.05666 10.5021 5.37837C11.14 6.25341 11.8393 7.05125 12.6736 7.7204C14.2193 8.93001 15.9001 9.31606 17.7648 8.67265C18.1574 8.5311 18.2433 8.37668 17.9489 8.0035C17.0778 6.88396 15.9614 6.1762 14.6855 5.72581C14.5506 5.67434 14.4156 5.63574 14.2807 5.58426C14.1457 5.53279 13.9862 5.53279 13.8636 5.28829C15.7161 5.62287 17.3355 6.22768 18.5009 7.90055C18.5745 7.20567 18.3783 6.7038 18.1084 6.21481C17.8385 5.72581 17.3845 5.41698 16.9429 5.01806C17.2128 4.94085 17.4091 4.88938 17.6054 4.8379C20.3534 4.19449 23.1383 4.0272 25.9477 4.29744C29.6282 4.65775 33.0878 5.73868 36.2039 7.83621C39.7003 10.1911 42.2399 13.2924 42.7674 17.7963C43.1232 20.8074 42.2521 23.4969 40.5836 25.9419C39.9089 25.3499 39.2832 24.7709 38.633 24.2175C38.4367 24.0502 38.4244 23.8701 38.4613 23.6513C38.5594 22.9822 38.4735 22.3259 38.314 21.6825C37.7497 19.3662 36.3389 17.7319 34.5232 16.4193C34.3146 16.2649 34.0938 16.1877 34.1797 15.7888C34.5968 13.8843 33.9834 12.2758 32.6829 10.9503C31.039 9.27746 28.978 8.59544 26.7697 8.29947C25.4079 8.11931 24.0339 8.14505 22.6721 8.29947C22.255 8.35094 22.12 8.22226 22.2059 7.78474C22.3041 7.32148 22.3531 6.85822 22.4268 6.39496C22.4636 6.1762 22.5004 5.97031 22.1691 5.95744C21.0282 5.93171 20.0713 6.27915 19.4579 7.34722C19.2493 7.70753 19.053 8.09358 18.8935 8.49249C18.734 8.90428 18.4519 9.0973 18.047 9.22598C16.1577 9.83079 14.3788 10.6801 12.784 11.9155C12.4773 12.1471 12.1338 12.353 11.8884 12.9192C13.839 12.2114 15.6179 11.4393 17.5563 11.0533C17.5195 11.182 17.4949 11.2592 17.4581 11.3364C15.7774 14.5792 14.0967 17.8091 12.4405 21.0519C12.281 21.3608 12.1215 21.3994 11.8148 21.3736C9.90094 21.2063 8.01164 21.2836 6.25729 22.2229C5.71749 22.506 5.31264 22.9822 4.80965 23.3939C3.99995 21.3222 3.74232 19.2504 4.12263 17.1014C4.7115 13.7814 6.49039 11.2334 8.91949 9.12304C9.66785 8.46676 10.5021 7.92629 11.3363 7.37295C10.5144 6.78101 9.72919 6.80675 8.85815 7.45016C8.02391 8.0421 7.23875 8.73699 6.53946 9.52195C2.84674 13.6913 1.53405 18.4139 3.57056 23.8829C3.8282 24.565 4.14717 25.1826 4.08583 25.9547C4.06129 26.2893 4.23305 26.611 4.41707 26.907C5.06728 27.9879 6.34317 28.4898 7.70494 28.1938C9.72919 27.7563 11.1155 26.3537 12.3423 24.7322C12.6245 24.3591 12.9312 23.9988 13.0907 23.4969C11.9375 23.2781 10.9928 23.484 10.2935 24.5264C10.0359 24.9124 9.70465 25.247 9.37341 25.5687C8.69866 26.2121 7.98711 26.7783 7.04246 26.8812C6.39224 26.9585 5.80337 26.804 5.44759 26.1735C5.09182 25.5301 5.28811 24.9253 5.68069 24.3848C6.2941 23.5226 7.20194 23.1623 8.15886 22.995C10.9683 22.4932 13.6305 23.2009 16.2559 24.166C16.538 24.269 16.5503 24.4234 16.5012 24.7065C16.3049 25.736 16.1332 26.7654 15.9737 27.8078C15.9369 28.0137 15.8019 28.2839 16.1945 28.3096C17.728 28.4126 19.1511 27.9751 19.4456 26.0834C19.4579 25.9805 19.4456 25.8261 19.5928 25.7488C19.6909 25.8003 19.8014 25.8518 19.9118 25.9161C21.3103 26.6754 22.6966 27.4346 24.1075 28.1809C25.0644 28.6828 25.6165 28.374 25.7514 27.3059C26.0213 25.247 26.328 23.2009 26.6102 21.142C26.647 20.846 26.7329 20.7045 27.0519 20.6659C29.1988 20.4085 31.2108 19.778 32.8424 18.1823C33.0387 17.9893 33.1491 18.0794 33.2964 18.2209C34.4496 19.2504 35.2225 20.5243 35.4678 22.2229ZM39.8721 28.8115C39.0501 28.4512 38.3386 28.5927 37.6761 29.0689C37.0995 29.4806 36.5597 29.9439 35.9585 30.3042C30.033 33.9459 23.7026 34.6279 17.0901 33.0323C14.2684 32.3503 11.6798 31.102 9.36114 29.2876C8.64959 28.7343 7.88896 28.464 7.01792 28.9144C14.7346 37.163 31.542 37.5362 39.8721 28.8115Z" fill="#FFF3E7"/>
<path d="M112.634 14.4382C113.407 12.4179 114.131 10.5391 114.855 8.66032C115.431 7.15473 116.008 5.64914 116.597 4.14356C117.136 2.75378 117.578 2.45781 119.001 2.44494C119.467 2.44494 119.946 2.49642 120.412 2.43208C121.013 2.35487 121.295 2.5865 121.541 3.17844C123.283 7.37349 125.062 11.5428 126.853 15.725C127.074 16.2526 126.988 16.3684 126.46 16.3427C125.601 16.3041 124.743 16.2912 123.884 16.3427C123.344 16.3813 123.123 16.1497 122.964 15.6735C122.78 15.1331 122.534 14.6055 122.338 14.065C122.24 13.769 122.105 13.6275 121.774 13.6403C120.216 13.6661 118.67 13.6661 117.112 13.6403C116.756 13.6403 116.609 13.769 116.498 14.1036C116.364 14.5669 116.118 15.0172 116.008 15.4805C115.861 16.1625 115.517 16.3684 114.855 16.3427C113.26 16.2912 111.665 16.3041 110.07 16.3427C109.628 16.3555 109.42 16.1883 109.248 15.7765C108.88 14.85 108.475 13.9363 108.046 13.0355C107.543 11.9675 106.942 10.9637 105.727 10.642C105.592 10.6034 105.445 10.5906 105.31 10.5648C104.881 10.4876 104.697 10.6292 104.709 11.131C104.746 12.6495 104.709 14.1808 104.733 15.6993C104.746 16.1625 104.647 16.3555 104.169 16.3298C103.31 16.2912 102.451 16.3041 101.593 16.3298C101.249 16.3427 101.126 16.2269 101.126 15.8537C101.139 12.0961 101.114 8.35148 101.139 4.59395C101.151 3.22991 101.936 2.47068 103.237 2.44494C104.721 2.40634 104.721 2.40634 104.721 3.95053C104.721 5.04433 104.733 6.13814 104.709 7.23194C104.697 7.63086 104.844 7.72093 105.2 7.7338C106.095 7.75954 106.745 7.38636 107.138 6.54992C107.457 5.88077 107.764 5.19875 108.07 4.5296C108.855 2.83099 110.916 1.90448 112.585 2.49642C112.794 2.57363 112.879 2.67657 112.843 2.9082C112.744 3.56448 112.659 4.22077 112.585 4.87705C112.548 5.19875 112.475 5.41751 112.07 5.41751C111.432 5.41751 111.015 5.80356 110.769 6.40837C110.377 7.39923 109.984 8.39008 109.223 9.20079C111.002 10.4619 111.665 12.4693 112.634 14.4382ZM119.283 6.3955C118.744 7.88822 118.265 9.23939 117.774 10.5906C117.627 10.9895 117.897 10.8994 118.081 10.8994C118.903 10.8994 119.713 10.8865 120.535 10.9123C120.964 10.9251 121.075 10.8351 120.891 10.3718C120.338 9.11071 119.848 7.82388 119.283 6.3955Z" fill="#FFF3E7"/>
<path d="M69.1924 25.0543C70.2842 25.5304 71.0817 26.2511 71.4252 27.4221C72.1245 29.7898 70.6645 32.1705 68.2968 32.5694C67.7447 32.6594 67.2049 32.7109 66.6528 32.6981C64.7267 32.6852 62.8129 32.6852 60.8868 32.6981C60.5433 32.6981 60.3838 32.6337 60.3838 32.2091C60.3961 28.4515 60.3838 24.7069 60.3961 20.9493C60.3961 19.7011 61.169 18.8518 62.3958 18.8132C64.0274 18.7746 65.6714 18.6716 67.2908 18.9033C68.1864 19.032 68.9838 19.4051 69.634 20.0614C70.9222 21.3611 70.9099 23.33 69.6095 24.6168C69.4868 24.7712 69.3518 24.8999 69.1924 25.0543ZM63.9784 28.4129C63.9784 28.7732 63.9784 29.1464 63.9784 29.5067C63.9784 29.7383 64.0642 29.8542 64.2973 29.8542C65.1316 29.8413 65.9781 29.9185 66.8001 29.7255C67.4625 29.5711 67.806 29.1464 67.8306 28.4773C67.8551 27.8725 67.5116 27.3963 66.9227 27.1904C66.3829 26.9974 65.8309 27.0617 65.2788 27.0489C63.9784 27.036 63.9784 27.036 63.9784 28.4129ZM63.9784 22.9439C63.9784 23.2399 63.9784 23.5358 63.9784 23.8447C63.9784 23.9991 63.9784 24.1793 64.1747 24.1793C64.8862 24.1535 65.61 24.3337 66.2848 23.9991C66.7632 23.7675 66.935 23.33 66.8982 22.7895C66.8614 22.2362 66.5424 21.9402 66.0885 21.7858C65.8186 21.6957 65.5242 21.6828 65.242 21.6699C63.9784 21.6442 63.9784 21.6442 63.9784 22.9439Z" fill="#FFF3E7"/>
<path d="M79.3018 10.1912C79.3018 8.41538 79.3018 6.6267 79.3018 4.85088C79.314 3.22947 80.0501 2.44451 81.5959 2.44451C83.7674 2.43164 85.9266 2.45738 88.098 2.43164C88.5397 2.43164 88.6869 2.57319 88.6256 3.01071C88.601 3.178 88.6256 3.35816 88.6256 3.52544C88.601 4.7608 88.1103 5.2884 86.9448 5.2884C85.7794 5.2884 84.6139 5.30126 83.4484 5.27553C83.0313 5.26266 82.8841 5.37847 82.8841 5.84173C82.8841 7.42453 82.8718 7.42453 84.3808 7.42453C85.2395 7.42453 86.0983 7.4374 86.9326 7.70763C89.0059 8.40252 90.0977 10.0497 89.9628 12.3273C89.8524 14.2962 88.417 15.9176 86.3805 16.1878C84.1477 16.4967 81.8903 16.265 79.6453 16.3165C79.2527 16.3294 79.314 16.0205 79.314 15.776C79.3018 13.923 79.3018 12.0571 79.3018 10.1912ZM82.8963 11.7354C82.8963 12.2244 82.9209 12.6104 82.8963 12.9965C82.8718 13.3697 83.0313 13.4855 83.3625 13.4597C83.8287 13.4211 84.3072 13.4469 84.7734 13.3825C85.2886 13.3182 85.7794 13.1252 86.0493 12.6104C86.4418 11.8641 86.1597 10.9118 85.4236 10.5386C84.6507 10.1526 83.7919 10.1783 83.0313 10.3971C82.6755 10.5 82.9822 11.3365 82.8963 11.7354Z" fill="#FFF3E7"/>
<path d="M61.3652 13.6527C60.6292 13.6527 59.8931 13.6785 59.157 13.6399C58.7521 13.6141 58.5804 13.7685 58.4577 14.1546C58.2737 14.7465 58.0283 15.3127 57.8443 15.8918C57.7461 16.2135 57.5989 16.3293 57.2799 16.3293C56.2985 16.3036 55.317 16.3165 54.3356 16.3293C53.9675 16.3422 53.9307 16.2135 54.0534 15.8789C55.6115 11.864 57.1573 7.83627 58.7031 3.8085C59.0711 2.84338 59.7581 2.38012 60.7641 2.4316C61.4143 2.45733 62.0768 2.45733 62.727 2.4316C63.0582 2.41873 63.23 2.50881 63.3772 2.85625C65.1929 7.17999 67.0331 11.4909 68.8611 15.8146C69.0083 16.1749 69.0574 16.3551 68.5789 16.3422C67.5975 16.3165 66.616 16.3165 65.6346 16.3422C65.3156 16.3551 65.1561 16.2264 65.0457 15.9175C64.8249 15.2999 64.5427 14.6951 64.3219 14.0774C64.1992 13.7299 64.0274 13.627 63.6962 13.6399C62.911 13.6656 62.1381 13.6527 61.3652 13.6527ZM61.2548 6.40789C60.7273 7.88774 60.2366 9.23891 59.7458 10.5901C59.6354 10.8861 59.7581 10.9118 59.9789 10.9118C60.8745 10.9118 61.7824 10.9118 62.6779 10.9118C62.9233 10.9118 63.0214 10.8346 62.9233 10.5772C62.3835 9.22604 61.8437 7.87487 61.2548 6.40789Z" fill="#FFF3E7"/>
<path d="M106.242 32.6979C106.991 30.7419 107.714 28.8631 108.438 26.9844C109.272 24.8225 110.094 22.6606 110.929 20.5116C111.456 19.1476 111.959 18.8001 113.345 18.813C114.082 18.8259 114.965 18.517 115.492 18.9288C115.995 19.3149 116.143 20.2157 116.437 20.8977C118.02 24.6295 119.59 28.3613 121.185 32.0802C121.393 32.5692 121.369 32.7365 120.805 32.7107C119.884 32.6721 118.964 32.685 118.044 32.7107C117.688 32.7236 117.492 32.6207 117.369 32.2475C117.173 31.6427 116.891 31.0636 116.682 30.4588C116.572 30.1371 116.413 29.9955 116.057 29.9955C114.523 30.0213 112.99 30.0213 111.456 29.9955C111.113 29.9955 110.941 30.0985 110.83 30.4459C110.634 31.0765 110.377 31.6813 110.18 32.3118C110.082 32.6078 109.947 32.7107 109.653 32.6979C108.561 32.685 107.457 32.6979 106.242 32.6979ZM115.382 27.2675C114.805 25.8005 114.241 24.3721 113.615 22.7893C113.039 24.385 112.536 25.8134 112.008 27.2675C113.149 27.2675 114.229 27.2675 115.382 27.2675Z" fill="#FFF3E7"/>
<path d="M84.9937 32.7111C83.6932 32.7111 82.54 32.6982 81.3745 32.7239C81.0678 32.7239 80.9574 32.5824 80.847 32.3122C80.4176 31.3213 79.976 30.3304 79.5343 29.3524C79.2031 28.6318 78.7982 27.9627 78.1603 27.4994C77.964 27.3579 77.7432 27.2292 77.5101 27.1391C76.4673 26.7531 76.2342 26.9203 76.2342 28.0656C76.2342 29.4554 76.2219 30.858 76.2464 32.2478C76.2464 32.5953 76.1728 32.7368 75.8048 32.7239C74.8847 32.6982 73.9646 32.7111 73.0444 32.7239C72.7623 32.7239 72.6519 32.6467 72.6519 32.325C72.6641 28.5031 72.6396 24.6941 72.6641 20.8723C72.6764 19.7785 73.3389 19.0964 74.4062 18.8905C76.1483 18.5688 76.2219 18.6203 76.2219 20.4219C76.2219 21.4899 76.2342 22.5709 76.2096 23.6389C76.2096 23.9992 76.2955 24.1151 76.6513 24.1279C77.6205 24.1794 78.3075 23.7805 78.7246 22.854C79.0313 22.172 79.3257 21.4899 79.6447 20.8208C80.5526 18.9163 82.4787 18.5302 84.1594 18.9163C84.4048 18.9677 84.368 19.1222 84.3434 19.3023C84.2821 19.7527 84.2085 20.1902 84.184 20.6406C84.1349 21.284 84.0981 21.876 83.2393 21.9017C82.8345 21.9146 82.54 22.262 82.3805 22.6481C81.9634 23.6132 81.6199 24.6427 80.9083 25.4405C80.7734 25.5949 80.8225 25.685 80.9697 25.8008C82.1352 26.663 82.7731 27.9369 83.3742 29.2238C83.914 30.3433 84.417 31.4757 84.9937 32.7111Z" fill="#FFF3E7"/>
<path d="M76.2954 8.86661C76.3935 9.08537 76.5776 9.14971 76.7248 9.25266C79.0189 11.0413 78.7 14.4643 76.0991 15.6868C74.4552 16.4589 72.7131 16.6262 70.9465 16.3302C70.2962 16.2144 69.8914 15.7125 69.5602 15.1463C69.278 14.6702 69.1185 14.1426 68.9222 13.6279C68.7505 13.1646 68.8609 13.0488 69.3025 13.1517C70.3085 13.3962 71.3268 13.4091 72.3573 13.3705C72.7867 13.3576 73.2038 13.2547 73.5964 13.0745C74.0749 12.8429 74.3325 12.4697 74.2957 11.9035C74.2589 11.3502 73.9154 11.0671 73.4492 10.9384C72.6272 10.7068 71.793 10.6939 70.9587 10.7068C70.5416 10.7196 70.3576 10.6167 70.4067 10.1406C70.4435 9.75452 70.4189 9.36847 70.4189 8.98242C70.4189 7.86288 70.4189 7.86288 71.4617 7.85002C72.161 7.85002 72.848 7.85002 73.5105 7.55405C73.8663 7.38676 74.1485 7.15513 74.2221 6.74334C74.3202 6.12567 74.0012 5.76536 73.4982 5.55946C72.6272 5.19915 71.7316 5.28923 70.8361 5.41791C70.6152 5.45652 70.3944 5.50799 70.1736 5.57233C68.7014 5.94551 68.7014 5.94551 68.591 4.36271C68.591 4.27264 68.5787 4.19543 68.5787 4.10535C68.5051 2.9472 68.5051 2.9472 69.5724 2.70271C71.5231 2.26519 73.486 2.04643 75.4366 2.67697C75.866 2.81852 76.2831 2.99868 76.6634 3.24317C78.4669 4.38845 78.6754 6.70474 77.1051 8.18459C76.872 8.45482 76.5898 8.63498 76.2954 8.86661Z" fill="#FFF3E7"/>
<path d="M85.0802 18.8005C86.1721 18.8005 87.2762 18.8134 88.3803 18.8005C88.7238 18.8005 88.7484 19.0836 88.8465 19.3024C89.6072 20.9753 90.3555 22.661 91.1775 24.4883C91.5333 23.3945 91.8522 22.468 92.1589 21.5286C92.2939 21.1297 92.4043 20.705 92.5515 20.319C92.9564 19.2509 93.5698 18.8263 94.6616 18.8134C95.1524 18.8134 95.6431 18.8391 96.1338 18.8005C96.5755 18.7748 96.6736 18.8777 96.4896 19.3281C95.8394 20.9238 95.226 22.5323 94.6003 24.128C93.7783 26.2255 92.9564 28.3102 92.1467 30.4077C91.5333 32.0034 90.3923 32.827 88.7484 32.8398C88.0368 32.8527 87.3253 32.8141 86.6137 32.6854C86.2457 32.6211 86.0862 32.4538 86.1598 32.042C86.2579 31.4758 86.3438 30.8967 86.3929 30.3305C86.4174 30.0345 86.5524 29.9831 86.7855 29.9831C87.2394 29.9959 87.6811 30.0088 88.135 29.9831C89.2146 29.9187 89.6808 29.108 89.2268 28.1172C87.9019 25.2218 86.5892 22.3264 85.2765 19.4311C85.1661 19.2638 85.0311 19.0836 85.0802 18.8005Z" fill="#FFF3E7"/>
<path d="M95.5202 8.06794C95.9373 6.76825 96.3176 5.5715 96.7102 4.37475C97.2009 2.84343 97.7162 2.45738 99.262 2.44451C99.8018 2.44451 100.354 2.44451 100.98 2.44451C100.354 4.04017 99.765 5.55863 99.1638 7.07709C98.256 9.39338 97.3604 11.6968 96.4526 14.0131C95.8024 15.686 94.6737 16.4709 92.9562 16.4838C92.2446 16.4838 91.533 16.4323 90.8215 16.2779C90.478 16.2136 90.3798 16.0463 90.4534 15.7117C90.4657 15.6474 90.478 15.583 90.4902 15.5187C90.5761 14.9267 90.478 14.1804 90.7847 13.7815C91.1159 13.3439 91.8643 13.7042 92.4163 13.627C92.8335 13.5627 93.2138 13.4469 93.4959 13.0994C93.7904 12.752 93.8763 12.4303 93.6554 11.9542C92.2814 8.99446 90.9319 6.02189 89.5824 3.04932C89.5088 2.88203 89.4352 2.70187 89.3125 2.43164C90.5148 2.43164 91.6435 2.43164 92.7721 2.43164C93.0788 2.43164 93.0911 2.71474 93.177 2.90777C93.864 4.43909 94.551 5.95755 95.238 7.48887C95.2994 7.65616 95.3852 7.79771 95.5202 8.06794Z" fill="#FFF3E7"/>
<path d="M106.598 28.9408C106.426 29.8416 106.23 30.6266 105.886 31.3601C105.506 32.1322 104.942 32.6598 104.108 32.7756C101.74 33.0973 99.5192 32.7498 97.7281 30.9612C95.7652 28.9923 95.115 26.5473 95.8879 23.8064C96.673 21.0269 98.5255 19.4054 101.212 18.8264C103.003 18.4403 104.733 18.7492 106.426 19.4441C106.635 19.5341 106.782 19.5985 106.782 19.8816C106.77 20.8853 106.782 21.889 106.782 22.9957C106.083 22.6483 105.469 22.2622 104.795 22.0434C103.764 21.7217 102.721 21.5673 101.666 21.8762C99.9486 22.3909 98.9181 24.1152 99.0653 26.1613C99.2125 28.143 100.403 29.4813 102.218 29.7515C103.421 29.9317 104.574 29.7001 105.702 29.3011C105.96 29.1982 106.242 29.0824 106.598 28.9408Z" fill="#FFF3E7"/>
<path d="M27.1005 10.8485C25.567 10.8485 24.88 11.4919 24.6591 13.1004C24.6223 13.3964 24.561 13.6924 24.5365 13.9884C24.4874 14.7733 24.3156 15.4296 23.4814 15.7127C23.2115 15.8028 22.9784 16.073 22.7576 16.2918C21.5553 17.5014 21.7025 19.0585 23.1134 19.9464C23.5182 20.2037 23.6286 20.4482 23.555 20.9115C23.371 22.031 23.2115 23.1506 23.0766 24.283C23.0275 24.6819 22.8925 24.7334 22.5613 24.5918C21.7761 24.2315 20.9787 23.9098 20.1813 23.5881C19.9114 23.4851 19.8623 23.3179 19.9114 23.0476C20.5002 19.1614 21.0768 15.2623 21.678 11.3761C21.8375 10.2952 21.862 10.2952 22.9171 10.2051C24.8554 10.0507 26.757 10.1536 28.585 10.9C29.9835 11.479 31.1122 12.3798 31.5784 13.9755C31.6029 14.0527 31.6275 14.1428 31.6397 14.22C31.787 15.0436 31.7134 15.1465 30.9405 14.9921C29.959 14.7991 28.9653 14.6318 27.9593 14.6446C27.6035 14.6446 27.5544 14.4902 27.6035 14.1814C27.7139 13.4222 27.7998 12.6501 27.9102 11.8908C28.082 10.8485 28.0942 10.8485 27.1005 10.8485Z" fill="#FFF3E7"/>
<path d="M14.1328 21.6574C15.5068 19.0066 16.8563 16.3943 18.2058 13.7949C18.2304 13.8078 18.2672 13.8207 18.2917 13.8335C17.9482 15.9311 17.6047 18.0286 17.2612 20.139C17.1631 20.7695 17.0526 21.4001 16.9545 22.0306C16.93 22.2108 16.9054 22.3781 16.6601 22.3266C15.8258 22.095 15.0039 21.8762 14.1328 21.6574Z" fill="#FFF3E7"/>
<path d="M27.1862 16.0596C28.5112 16.0982 29.6399 16.2912 30.7195 16.6772C31.0262 16.7931 31.1734 16.9089 30.9158 17.2435C29.9466 18.4917 28.6339 18.9678 27.174 19.1351C26.9041 19.1608 26.9409 19.0193 26.9654 18.8262C27.0636 18.17 27.1494 17.5137 27.2476 16.8574C27.3089 16.4971 27.2108 16.3427 26.8427 16.3941C25.5423 16.5486 24.4872 17.0504 23.972 18.4273C23.9229 18.556 23.9352 18.7748 23.7389 18.7362C23.6162 18.7104 23.4813 18.5818 23.4199 18.4659C23.1623 18.0027 23.334 17.6038 23.6653 17.2563C24.2664 16.6258 25.0393 16.3555 25.849 16.214C26.3397 16.111 26.855 16.0853 27.1862 16.0596Z" fill="#FFF3E7"/>
<path d="M13.7405 5.28873C13.5688 5.39168 13.4338 5.34021 13.2866 5.3016C13.4093 5.16005 13.5443 5.22439 13.7405 5.28873Z" fill="#FFF3E7"/>
</g>
<defs>
<clipPath id="clip0_285_3776">
<rect width="126.976" height="38" fill="white"/>
</clipPath>
</defs>
</svg>
