<svg width="25" height="25" viewBox="0 0 25 25" fill="none" xmlns="http://www.w3.org/2000/svg">
<circle cx="12.5" cy="12.5" r="12" stroke="#FAEEE2"/>
<path d="M16.9354 12.5001C16.935 12.0673 16.8186 11.6425 16.5982 11.2699C16.3779 10.8974 16.0617 10.5908 15.6825 10.382C15.9683 10.0839 16.1282 9.68717 16.1289 9.27427H15.3225C15.3222 9.48809 15.2372 9.6931 15.086 9.84429C14.9348 9.99549 14.7298 10.0805 14.516 10.0807C13.8823 10.0816 13.2742 10.3309 12.8222 10.7751C12.3702 11.2193 12.1104 11.823 12.0986 12.4566C11.5816 11.93 11.2914 11.2219 11.2901 10.484C11.2891 10.1274 11.1697 9.78117 10.9508 9.49965C10.7319 9.21813 10.4258 9.01718 10.0804 8.9283V8.06458H9.27397V8.9283C8.92861 9.01718 8.62249 9.21813 8.40358 9.49965C8.18467 9.78117 8.06534 10.1274 8.06428 10.484V12.5001H7.25781V12.9034C7.25781 14.4006 7.85258 15.8365 8.91127 16.8952C9.96996 17.9538 11.4058 18.5486 12.9031 18.5486C14.4003 18.5486 15.8362 17.9538 16.8949 16.8952C17.9535 15.8365 18.5483 14.4006 18.5483 12.9034V12.5001H16.9354ZM14.516 10.8872C14.9436 10.8877 15.3535 11.0578 15.6559 11.3602C15.9583 11.6626 16.1284 12.0725 16.1289 12.5001H12.9031C12.9036 12.0725 13.0737 11.6626 13.3761 11.3602C13.6784 11.0578 14.0884 10.8877 14.516 10.8872ZM8.87074 10.484C8.87074 10.2701 8.95571 10.065 9.10695 9.91371C9.25819 9.76247 9.46332 9.6775 9.67721 9.6775C9.89109 9.6775 10.0962 9.76247 10.2475 9.91371C10.3987 10.065 10.4837 10.2701 10.4837 10.484C10.4853 11.2024 10.7003 11.9041 11.1014 12.5001H8.87074V10.484ZM12.9031 17.7421C11.6899 17.7406 10.5215 17.2842 9.62866 16.4629C8.73581 15.6416 8.18347 14.5154 8.08081 13.3066H17.7257C17.623 14.5154 17.0707 15.6418 16.1777 16.463C15.2848 17.2843 14.1163 17.7407 12.9031 17.7421Z" fill="#FAEEE2"/>
</svg>
