<svg width="25" height="25" viewBox="0 0 25 25" fill="none" xmlns="http://www.w3.org/2000/svg">
<circle cx="12.5" cy="12.5" r="12" stroke="#184240"/>
<path d="M16.9354 12.5003C16.935 12.0674 16.8186 11.6426 16.5982 11.2701C16.3779 10.8975 16.0617 10.5909 15.6825 10.3821C15.9683 10.084 16.1282 9.68729 16.1289 9.27439H15.3225C15.3222 9.48822 15.2372 9.69322 15.086 9.84441C14.9348 9.99561 14.7298 10.0806 14.516 10.0809C13.8823 10.0817 13.2742 10.331 12.8222 10.7752C12.3702 11.2194 12.1104 11.8231 12.0986 12.4567C11.5816 11.9301 11.2914 11.222 11.2901 10.4841C11.2891 10.1275 11.1697 9.78129 10.9508 9.49977C10.7319 9.21825 10.4258 9.01731 10.0804 8.92842V8.0647H9.27397V8.92842C8.92861 9.01731 8.62249 9.21825 8.40358 9.49977C8.18467 9.78129 8.06534 10.1275 8.06428 10.4841V12.5003H7.25781V12.9035C7.25781 14.4007 7.85258 15.8366 8.91127 16.8953C9.96996 17.954 11.4058 18.5487 12.9031 18.5487C14.4003 18.5487 15.8362 17.954 16.8949 16.8953C17.9535 15.8366 18.5483 14.4007 18.5483 12.9035V12.5003H16.9354ZM14.516 10.8873C14.9436 10.8879 15.3535 11.058 15.6559 11.3603C15.9583 11.6627 16.1284 12.0726 16.1289 12.5003H12.9031C12.9036 12.0726 13.0737 11.6627 13.3761 11.3603C13.6784 11.058 14.0884 10.8879 14.516 10.8873ZM8.87074 10.4841C8.87074 10.2702 8.95571 10.0651 9.10695 9.91383C9.25819 9.76259 9.46332 9.67763 9.67721 9.67763C9.89109 9.67763 10.0962 9.76259 10.2475 9.91383C10.3987 10.0651 10.4837 10.2702 10.4837 10.4841C10.4853 11.2025 10.7003 11.9042 11.1014 12.5003H8.87074V10.4841ZM12.9031 17.7423C11.6899 17.7408 10.5215 17.2843 9.62866 16.463C8.73581 15.6418 8.18347 14.5155 8.08081 13.3067H17.7257C17.623 14.5156 17.0707 15.6419 16.1777 16.4632C15.2848 17.2844 14.1163 17.7409 12.9031 17.7423Z" fill="#184240"/>
</svg>
