<svg width="25" height="25" viewBox="0 0 25 25" fill="none" xmlns="http://www.w3.org/2000/svg">
<circle cx="12.5" cy="12.5" r="12" stroke="#FAEEE2"/>
<g clip-path="url(#clip0_187_34)">
<path d="M16.8013 12.9035C16.8013 11.9693 16.1629 11.2032 15.3094 10.9679C15.4331 10.6621 15.4799 10.3306 15.4455 10.0025C15.411 9.67442 15.2965 9.35981 15.112 9.08635C14.9275 8.81288 14.6786 8.58895 14.3872 8.43423C14.0959 8.27952 13.771 8.19877 13.4411 8.19908C13.1521 8.19908 12.8833 8.26628 12.6413 8.37381C12.769 7.65472 13.0311 6.57943 13.7099 6.31733L13.1722 5.51086C12.0297 6.02835 11.6937 7.58751 11.5996 8.39397C11.3375 8.27301 11.0553 8.19908 10.7528 8.19908C10.423 8.19877 10.098 8.27952 9.80667 8.43423C9.5153 8.58895 9.26641 8.81288 9.08189 9.08635C8.89737 9.35981 8.78286 9.67442 8.74845 10.0025C8.71404 10.3306 8.76077 10.6621 8.88454 10.9679C8.02431 11.1964 7.39258 11.976 7.39258 12.9035C7.39258 13.8376 8.03103 14.6105 8.89126 14.839C8.79717 15.0675 8.73669 15.3228 8.73669 15.5917C8.73669 16.5258 9.36842 17.2987 10.2286 17.5272C10.1049 17.833 10.0581 18.1645 10.0926 18.4926C10.127 18.8207 10.2415 19.1353 10.426 19.4088C10.6105 19.6822 10.8594 19.9062 11.1508 20.0609C11.4421 20.2156 11.7671 20.2964 12.097 20.296C12.4268 20.2964 12.7518 20.2156 13.0431 20.0609C13.3345 19.9062 13.5834 19.6822 13.7679 19.4088C13.9524 19.1353 14.0669 18.8207 14.1013 18.4926C14.1358 18.1645 14.089 17.833 13.9653 17.5272C14.393 17.4151 14.7715 17.1643 15.0415 16.814C15.3115 16.4638 15.4577 16.0339 15.4572 15.5917C15.4572 15.3228 15.4035 15.0742 15.3027 14.839C15.7312 14.7273 16.1107 14.4768 16.3818 14.1266C16.653 13.7764 16.8005 13.3463 16.8013 12.9035ZM14.9935 11.4787V11.4921H14.9868L14.9935 11.4787ZM13.4411 9.20716C13.9989 9.20716 14.4491 9.65744 14.4491 10.2152C14.4491 10.773 13.9989 11.2233 13.4411 11.2233C12.8833 11.2233 12.433 10.773 12.433 10.2152C12.433 9.65744 12.8833 9.20716 13.4411 9.20716ZM13.105 12.9035C13.105 13.4613 12.6548 13.9115 12.097 13.9115C11.5391 13.9115 11.0889 13.4613 11.0889 12.9035C11.0889 12.3457 11.5391 11.8954 12.097 11.8954C12.6548 11.8954 13.105 12.3457 13.105 12.9035ZM10.7528 9.20716C11.3107 9.20716 11.7609 9.65744 11.7609 10.2152C11.7609 10.773 11.3107 11.2233 10.7528 11.2233C10.195 11.2233 9.74477 10.773 9.74477 10.2152C9.74477 9.65744 10.195 9.20716 10.7528 9.20716ZM8.40066 12.9035C8.40066 12.3457 8.85093 11.8954 9.40874 11.8954C9.96654 11.8954 10.4168 12.3457 10.4168 12.9035C10.4168 13.4613 9.96654 13.9115 9.40874 13.9115C8.85093 13.9115 8.40066 13.4613 8.40066 12.9035ZM9.74477 15.5917C9.74477 15.0339 10.195 14.5836 10.7528 14.5836C11.3107 14.5836 11.7609 15.0339 11.7609 15.5917C11.7609 16.1495 11.3107 16.5998 10.7528 16.5998C10.195 16.5998 9.74477 16.1495 9.74477 15.5917ZM12.097 19.288C11.5391 19.288 11.0889 18.8377 11.0889 18.2799C11.0889 17.7221 11.5391 17.2718 12.097 17.2718C12.6548 17.2718 13.105 17.7221 13.105 18.2799C13.105 18.8377 12.6548 19.288 12.097 19.288ZM13.4411 16.5998C12.8833 16.5998 12.433 16.1495 12.433 15.5917C12.433 15.0339 12.8833 14.5836 13.4411 14.5836C13.9989 14.5836 14.4491 15.0339 14.4491 15.5917C14.4491 16.1495 13.9989 16.5998 13.4411 16.5998ZM14.7852 13.9115C14.2274 13.9115 13.7771 13.4613 13.7771 12.9035C13.7771 12.3457 14.2274 11.8954 14.7852 11.8954C15.343 11.8954 15.7932 12.3457 15.7932 12.9035C15.7932 13.4613 15.343 13.9115 14.7852 13.9115Z" fill="#FAEEE2"/>
</g>
<defs>
<clipPath id="clip0_187_34">
<rect width="16.1293" height="16.1293" fill="white" transform="translate(4.03223 4.83875)"/>
</clipPath>
</defs>
</svg>
