<svg width="40" height="40" viewBox="0 0 40 40" fill="none" xmlns="http://www.w3.org/2000/svg">
<circle opacity="0.1" cx="20" cy="20" r="20" fill="#EEEEEE"/>
<path d="M20.0493 14.6342L20.4686 15.282L20.8885 14.6346C22.3803 12.3345 24.4578 11.8836 26.1377 12.5289C27.8493 13.1865 29.25 15.0198 29.25 17.5105C29.25 18.3703 28.7925 19.4241 28.0006 20.5814C27.219 21.7238 26.1593 22.8991 25.06 23.9882C23.9629 25.0752 22.8385 26.0645 21.9347 26.8362C21.6101 27.1134 21.3155 27.3611 21.0601 27.5759C20.9594 27.6606 20.8649 27.7401 20.7769 27.8144C20.664 27.9096 20.5592 27.9984 20.4658 28.0789C20.3671 27.9964 20.2561 27.9055 20.1369 27.8086C20.0097 27.7051 19.8704 27.5926 19.7197 27.4708C19.4836 27.2801 19.2193 27.0666 18.9288 26.8293C17.9837 26.057 16.8044 25.0673 15.6523 23.9798C14.4979 22.8901 13.3838 21.7144 12.5618 20.5718C11.728 19.4127 11.25 18.3626 11.25 17.5105C11.25 15.0186 12.7429 13.1777 14.5739 12.5172C16.3816 11.8651 18.5678 12.3458 20.0493 14.6342Z" stroke="#FAEEE2"/>
</svg>
