<svg width="40" height="40" viewBox="0 0 40 40" fill="none" xmlns="http://www.w3.org/2000/svg">
<circle cx="20" cy="20" r="20" fill="#E3DED2"/>
<g clip-path="url(#clip0_992_7189)">
<path d="M20.2993 15.8843L20.7186 16.532L21.1385 15.8847C22.6303 13.5846 24.7078 13.1337 26.3877 13.779C28.0993 14.4365 29.5 16.2698 29.5 18.7606C29.5 19.6204 29.0425 20.6742 28.2506 21.8315C27.469 22.9738 26.4093 24.1491 25.31 25.2383C24.2129 26.3253 23.0885 27.3146 22.1847 28.0863C21.8601 28.3635 21.5655 28.6111 21.3101 28.826C21.2094 28.9106 21.1149 28.9902 21.0269 29.0644C20.914 29.1596 20.8092 29.2485 20.7158 29.329C20.6171 29.2464 20.5061 29.1556 20.3869 29.0586C20.2597 28.9552 20.1204 28.8427 19.9697 28.7209C19.7336 28.5301 19.4693 28.3166 19.1788 28.0793C18.2337 27.3071 17.0544 26.3174 15.9023 25.2299C14.7479 24.1401 13.6338 22.9644 12.8118 21.8218C11.978 20.6628 11.5 19.6126 11.5 18.7606C11.5 16.2687 12.9929 14.4277 14.8239 13.7672C16.6316 13.1151 18.8178 13.5959 20.2993 15.8843Z" stroke="#184240"/>
</g>
<defs>
<clipPath id="clip0_992_7189">
<rect width="21" height="21" fill="white" transform="translate(9 9)"/>
</clipPath>
</defs>
</svg>
