<svg width="114" height="41" viewBox="0 0 114 41" fill="none" xmlns="http://www.w3.org/2000/svg">
<path d="M113.523 7.79365C113.677 8.87249 113.762 9.86727 112.595 10.4838C111.428 11.1002 109.824 10.9881 108.84 10.1475C108.685 10.0074 108.559 9.82524 108.432 9.67112C106.661 11.2824 104.847 11.2964 103.286 9.69914C102.625 10.4697 101.767 10.9041 100.741 10.8901C99.7422 10.8901 98.8704 10.5118 98.1673 9.68513C97.4923 10.4978 96.6205 10.8901 95.594 10.8761C94.5956 10.8621 93.7238 10.4978 93.0769 9.69914C91.2911 11.2964 89.6178 11.2964 87.9585 9.71315C86.2008 11.2684 84.443 11.2824 82.84 9.69914C82.165 10.4557 81.3073 10.8901 80.2808 10.8761C79.2824 10.8621 78.4106 10.4978 77.7356 9.65711C77.0606 10.4838 76.1888 10.8761 75.1623 10.8761C74.1639 10.8621 73.2921 10.4978 72.6452 9.69914C71.1688 11.2404 69.0736 11.2964 67.4986 9.74117C65.8394 11.2824 64.0395 11.2824 62.3942 9.68513C61.7474 10.4697 60.8756 10.8901 59.8491 10.8761C58.8366 10.8761 57.9788 10.5118 57.332 9.69914C55.4477 11.2684 53.9572 11.2824 52.1713 9.72716C50.4839 11.2684 48.7122 11.2684 47.0529 9.67112C46.392 10.4557 45.5342 10.8761 44.5077 10.8621C43.5093 10.848 42.6375 10.4978 41.9907 9.68513C40.1064 11.2544 38.5174 11.2684 36.8159 9.68513C36.155 10.4838 35.2691 10.8761 34.2426 10.8621C33.2302 10.848 32.3724 10.4557 31.7397 9.65711C30.1085 11.2684 28.2102 11.2684 26.6212 9.65711C25.9743 10.4697 25.1025 10.8621 24.076 10.8621C23.0776 10.8621 22.2058 10.4978 21.5168 9.65711C20.8277 10.4697 19.97 10.8761 18.9435 10.8621C17.931 10.848 17.0733 10.4697 16.4264 9.68513C14.7109 11.2684 12.911 11.2684 11.3079 9.69914C9.62054 11.4785 7.30035 11.0162 6.20354 9.68513C4.99423 10.9181 3.57399 11.2263 2.01314 10.4417C1.01476 9.95134 0.87414 9.47496 1.02882 7.76562C38.5174 7.79365 75.9919 7.79365 113.523 7.79365ZM57.4445 9.23678C58.5554 11.1423 61.6349 10.6939 62.0568 9.41892C60.4818 10.5118 59.0616 10.4978 57.4445 9.23678ZM88.1835 9.34887C89.2943 10.9041 91.9801 10.9461 92.6973 9.41892C91.1364 10.5118 89.7302 10.4978 88.1835 9.34887ZM42.2156 9.34887C42.9047 10.848 45.9561 10.9741 46.7435 9.41892C45.0561 10.5118 43.889 10.4978 42.2156 9.34887ZM103.595 9.46095C104.734 11.0862 107.504 10.6799 108.081 9.37689C106.59 10.4838 105.114 10.4978 103.595 9.46095ZM16.2296 9.29282C14.6125 10.5118 13.1079 10.4978 11.547 9.33486C12.461 10.9041 15.2452 10.9041 16.2296 9.29282ZM31.4444 9.43293C29.9397 10.5258 28.4351 10.4838 26.7759 9.29282C28.0977 10.9181 30.3194 10.9181 31.4444 9.43293ZM77.4262 9.41892C75.9357 10.5118 74.4451 10.4557 72.9265 9.46095C74.192 10.9321 76.245 10.8901 77.4262 9.41892ZM93.3441 9.41892C94.4409 10.848 97.0002 10.9181 97.647 9.55903C96.1705 10.4978 94.7503 10.4417 93.3441 9.41892ZM47.3763 9.41892C48.459 10.848 50.8917 10.9181 51.7073 9.53101C50.2027 10.4838 48.7825 10.4417 47.3763 9.41892ZM36.38 9.58705C34.8754 10.4838 33.4411 10.4417 32.0349 9.40491C33.1177 10.848 35.241 10.9321 36.38 9.58705ZM77.9746 9.33486C78.8324 10.9321 81.6869 10.82 82.4041 9.517C80.8714 10.4838 79.423 10.4557 77.9746 9.33486ZM5.64107 9.74117C4.98017 9.88128 4.24896 10.2035 3.51775 10.1755C2.8006 10.1475 2.09751 9.78321 1.50692 9.60106C2.39281 10.848 4.67081 10.9181 5.64107 9.74117ZM62.6755 9.40491C63.8145 10.848 66.0925 10.9181 67.0487 9.517C65.53 10.4978 64.0816 10.4417 62.6755 9.40491ZM16.7639 9.41892C17.5654 10.9741 20.5746 10.764 21.0246 9.55903C19.5903 10.4697 18.1841 10.4557 16.7639 9.41892ZM108.601 9.32084C109.599 10.778 111.92 10.9461 112.946 9.62909C111.413 10.4697 110.007 10.3997 108.601 9.32084ZM37.3784 9.57304C37.6175 10.1335 38.3627 10.5118 39.2908 10.5398C40.3595 10.5678 41.2313 10.1475 41.5407 9.47497C40.0923 10.4417 38.9674 10.4697 37.3784 9.57304ZM21.9808 9.55903C22.9089 10.8761 25.679 10.792 26.2274 9.44694C24.9338 10.4417 23.5698 10.4417 21.9808 9.55903ZM56.9945 9.37689C55.518 10.4838 54.0978 10.4277 52.4807 9.44694C53.7744 10.9041 56.0243 10.834 56.9945 9.37689ZM98.5329 9.517C99.6156 10.9881 102.315 10.7079 102.892 9.48898C101.247 10.4417 100.403 10.4557 98.5329 9.517ZM68.1174 9.72716C68.8908 10.9461 71.689 10.7219 72.2234 9.48898C70.7328 10.3857 70.2688 10.4137 68.1174 9.72716ZM83.3462 9.60106C84.218 10.9181 87.0163 10.75 87.5507 9.43293C86.2289 10.4417 84.8508 10.4277 83.3462 9.60106ZM6.80819 9.72716C7.51128 10.8621 10.2814 10.82 10.9142 9.48898C9.47992 10.3577 9.14244 10.3857 6.80819 9.72716Z" fill="#FFF3E7"/>
<path d="M1.05607 33.4763C0.901388 31.6829 1.11231 31.2066 2.23725 30.7022C3.58718 30.0997 5.06366 30.436 6.17454 31.6129C6.8495 30.8563 7.69321 30.422 8.73378 30.422C9.74622 30.422 10.5899 30.8283 11.2508 31.5708C13.121 30.0156 14.8084 30.0156 16.3834 31.5989C17.1286 30.7722 18.0708 30.3379 19.2098 30.422C20.0957 30.492 20.8691 30.8423 21.4878 31.6129C22.1768 30.8563 23.0064 30.422 24.047 30.422C25.0594 30.422 25.9032 30.8003 26.6062 31.6269C27.2953 30.8283 28.153 30.422 29.1936 30.422C30.206 30.422 31.0497 30.8283 31.6966 31.5989C33.3699 30.0156 35.1698 30.0156 36.8291 31.5708C38.404 30.0016 40.443 30.0577 41.9476 31.5849C42.6366 30.8423 43.4944 30.422 44.535 30.422C45.5474 30.436 46.3911 30.8423 47.0379 31.6129C48.5847 30.0156 50.5252 30.0016 52.1564 31.5708C53.7735 29.9456 55.8406 30.1137 57.2749 31.5849C57.978 30.8423 58.8217 30.4079 59.8622 30.422C60.8747 30.436 61.7184 30.8423 62.3652 31.6129C63.9542 30.0156 65.8385 30.0016 67.4978 31.5708C68.9321 30.0717 71.0554 29.9876 72.6162 31.5849C73.3053 30.8283 74.163 30.4079 75.1895 30.422C76.202 30.436 77.0457 30.8143 77.6925 31.6129C79.2815 30.0016 81.2642 30.0016 82.811 31.5708C84.7093 30.0016 86.1858 29.9876 87.9295 31.5708C88.6185 30.8423 89.4622 30.3939 90.5028 30.4079C91.5152 30.422 92.3589 30.8143 93.0058 31.5849C94.7072 30.0016 96.6899 30.0156 98.1242 31.5849C100.037 30.0016 101.555 29.9876 103.243 31.5708C103.946 30.8703 104.775 30.3939 105.816 30.4079C106.828 30.422 107.672 30.8002 108.206 31.4307C109.05 31.0665 109.795 30.5901 110.597 30.464C111.216 30.3659 111.947 30.5761 112.538 30.8423C113.592 31.3046 113.775 31.9211 113.55 33.4763C76.0473 33.4763 38.5728 33.4763 1.05607 33.4763ZM26.3531 31.9491C25.2563 30.3519 22.3737 30.6041 21.9096 31.8651C23.3861 30.8563 24.6938 30.8563 26.3531 31.9491ZM16.0459 31.8791C15.0334 30.5621 12.657 30.436 11.8836 31.6829C13.332 30.8983 14.71 30.8843 16.0459 31.8791ZM46.7989 32.0052C45.9833 30.52 43.2694 30.506 42.4398 31.739C43.9865 30.8843 45.3927 30.8703 46.7989 32.0052ZM73.2912 31.5148C73.8959 31.4027 74.613 31.1225 75.3161 31.1645C76.0192 31.2066 76.7082 31.5568 77.2847 31.725C76.2864 30.5481 74.149 30.436 73.2912 31.5148ZM103.707 31.739C105.183 30.8563 106.618 30.8563 108.178 32.0472C106.955 30.52 104.902 30.436 103.707 31.739ZM52.5361 31.823C54.35 30.8843 55.0531 30.8703 56.7827 31.739C56.1359 30.5481 53.3235 30.45 52.5361 31.823ZM92.7105 31.9071C91.684 30.5761 89.2935 30.436 88.5623 31.6549C90.2918 30.8703 91.2621 30.9263 92.7105 31.9071ZM57.8655 31.6409C59.3279 30.8563 60.72 30.8983 62.1824 32.0332C61.0294 30.5621 58.9482 30.436 57.8655 31.6409ZM72.1241 31.753C71.1819 30.478 68.4258 30.5761 67.9056 31.8651C69.1992 30.8983 70.5632 30.8983 72.1241 31.753ZM31.5278 32.0332C30.417 30.5621 28.0968 30.422 27.1968 31.711C28.6733 30.8703 30.0654 30.8983 31.5278 32.0332ZM78.1284 31.781C79.4643 30.8843 80.8424 30.9263 82.2345 31.6549C81.0252 30.492 79.2393 30.5481 78.1284 31.781ZM20.9112 31.6549C20.0113 30.3939 17.2411 30.6882 16.8615 31.823C18.1692 30.9123 19.5051 30.8843 20.9112 31.6549ZM97.5477 31.6269C96.7743 30.45 93.9901 30.6041 93.4839 31.781C95.0728 30.9263 95.4666 30.9123 97.5477 31.6269ZM66.9072 31.6269C66.0494 30.422 63.2933 30.6601 62.8433 31.781C64.4323 30.9404 64.7417 30.9263 66.9072 31.6269ZM82.9938 32.0612C84.3578 30.9123 85.7358 30.9263 87.1701 31.5148C85.8905 30.422 83.9922 30.6321 82.9938 32.0612ZM6.55421 31.8371C7.8057 30.9123 9.14157 30.9404 10.5337 31.5148C9.33843 30.464 7.58071 30.6041 6.55421 31.8371ZM98.4055 31.9632C99.7835 30.9123 101.119 30.9123 102.511 31.5288C101.372 30.45 99.3898 30.6181 98.4055 31.9632ZM112.861 31.6409C111.722 30.478 109.753 30.5481 108.642 31.9071C110.119 30.9263 111.469 30.8843 112.861 31.6409ZM51.7205 31.739C50.4409 30.478 48.4582 30.5481 47.4739 31.767C49.4566 30.9123 49.8644 30.8983 51.7205 31.739ZM41.2726 31.6129C40.218 30.436 38.0806 30.6181 37.0963 31.9772C38.4603 30.9404 39.7821 30.9123 41.2726 31.6129ZM36.3229 31.739C35.4792 30.464 32.695 30.5901 32.1606 31.8371C33.4965 30.8983 34.8605 30.8983 36.3229 31.739ZM1.47792 31.781C2.94034 30.9263 4.26214 30.9263 5.59801 31.6549C4.45901 30.52 2.5888 30.534 1.47792 31.781Z" fill="#FFF3E7"/>
<path d="M79.085 15.584C79.5631 15.584 79.9849 15.584 80.463 15.584C80.463 16.6208 80.463 17.6156 80.463 18.6104C80.463 18.7925 80.4349 18.9886 80.4771 19.1708C80.5193 19.3109 80.6458 19.437 80.7302 19.5631C80.8286 19.437 80.9974 19.3109 80.9974 19.1848C81.0255 18.6524 80.9974 18.106 81.0114 17.5735C81.0114 17.4194 81.0536 17.2653 81.1099 16.929C81.2786 17.1672 81.377 17.2653 81.4333 17.3914C81.4614 17.4755 81.4473 17.5735 81.4333 17.6716C81.2645 18.8766 81.3348 19.8573 82.9238 20.0395C83.3597 20.0955 83.7253 20.726 84.1472 21.1043C84.1472 19.3109 84.1472 17.4895 84.1472 15.598C84.4987 15.584 84.794 15.584 85.0893 15.556C85.4549 15.5279 85.5815 15.6821 85.5815 16.0463C85.5674 19.1007 85.5674 22.1551 85.5393 25.2095C85.5393 25.4057 85.3846 25.6018 85.3003 25.812C85.4971 25.812 85.7502 25.812 86.0737 25.812C86.0737 22.9257 86.0737 20.0395 86.0737 17.1672C86.144 17.1392 86.2002 17.1252 86.2705 17.0972C86.3549 17.2233 86.4955 17.3634 86.4955 17.4895C86.5096 20.1936 86.5096 22.8977 86.4815 25.6159C86.4815 25.826 86.2565 26.1903 86.1299 26.1903C85.7081 26.2183 85.2581 26.1623 84.8644 26.0362C84.6253 25.9661 84.4566 25.6859 84.1613 25.4337C84.1472 25.3496 84.1331 25.1255 84.1191 24.9433C82.6707 26.7367 80.9552 26.5406 79.1131 25.6579C79.085 22.2672 79.085 18.9606 79.085 15.584ZM80.1396 25.6579C80.1396 25.6999 80.1396 25.742 80.1537 25.798C80.8989 25.798 81.6583 25.8681 82.3754 25.77C82.7692 25.7139 83.2051 25.4057 83.4722 25.0975C84.2738 24.1447 84.1331 21.6087 83.2754 20.698C83.2613 20.684 83.2051 20.698 83.2754 20.698C83.3176 21.5947 83.4301 22.4914 83.4019 23.3881C83.3738 24.6071 82.6004 25.812 80.9692 25.6719C80.688 25.6439 80.4208 25.6579 80.1396 25.6579ZM80.8005 24.0466C80.8567 24.0046 80.8989 23.9626 80.9552 23.9205C81.0114 23.0518 81.0536 22.1832 81.1099 21.2865C81.0255 21.2865 80.7583 21.2865 80.463 21.2865C80.463 22.0851 80.449 22.8277 80.4771 23.5703C80.4911 23.7384 80.688 23.8925 80.8005 24.0466ZM81.3489 23.8224C81.9254 23.6263 82.1926 22.9958 81.9676 22.1832C81.9114 21.987 81.6583 21.8469 81.5036 21.6788C81.4473 21.7208 81.4052 21.7628 81.3489 21.8189C81.3489 22.4774 81.3489 23.1499 81.3489 23.8224Z" fill="#FFF3E7"/>
<path d="M56.9376 21.5805C57.6688 20.1934 57.1063 18.5961 57.3876 17.111C57.4579 17.111 57.5282 17.111 57.6126 17.125C57.6126 17.6994 57.6126 18.2739 57.6126 18.8623C57.6688 18.8763 57.7251 18.8763 57.7813 18.8904C58.0204 18.1338 58.2735 17.3772 58.5125 16.6066C58.8641 15.4577 58.8641 15.4436 60.1718 15.6118C60.1859 15.7799 60.2281 15.948 60.2281 16.1302C60.2281 19.1005 60.2281 22.0568 60.214 25.0272C60.214 25.2934 60.0452 25.5456 59.9468 25.7978C60.0452 25.7978 60.3124 25.7978 60.7062 25.7978C60.7062 22.8835 60.7062 19.9972 60.7062 17.125C60.7905 17.125 60.8749 17.111 60.9593 17.111C60.9874 17.3351 61.0436 17.5453 61.0436 17.7695C61.0436 20.3195 61.0577 22.8555 61.0296 25.4055C61.0296 25.6717 60.903 26.1481 60.7624 26.1761C60.3546 26.2602 59.8062 26.3022 59.4828 26.092C58.9906 25.7838 58.6391 25.2934 58.7656 24.5788C58.8641 24.0044 58.7797 23.3879 58.6531 22.7714C58.3719 23.6961 58.1188 24.6209 57.7954 25.5316C57.6969 25.7978 57.4438 26.2041 57.261 26.2041C56.8392 26.2041 56.4173 26.3582 55.9392 25.9239C55.3486 25.3915 55.4611 24.8731 55.4471 24.3126C55.433 21.6225 55.4611 18.9464 55.4189 16.2563C55.4049 15.5978 55.7002 15.5697 56.2064 15.5557C56.7407 15.5417 56.9517 15.6818 56.9517 16.2563C56.9235 18.0217 56.9376 19.8151 56.9376 21.5805ZM58.6953 19.717C58.1469 21.4824 57.6126 23.2618 57.036 25.0272C56.9376 25.3214 56.6845 25.5736 56.5298 25.7838C56.6986 25.7838 57.022 25.7838 57.3735 25.7838C57.8094 23.7242 58.9766 21.9027 58.6953 19.717Z" fill="#FFF3E7"/>
<path d="M62.6185 15.6257C62.745 15.5837 62.7872 15.5557 62.8294 15.5557C64.0246 15.4576 64.0246 15.4576 64.0246 16.6626C64.0246 18.2878 64.0246 19.9131 64.0246 21.5944C64.8262 20.1373 64.2918 18.568 64.5309 17.0969C64.6012 17.0969 64.6855 17.0969 64.7558 17.0969C64.7558 17.6433 64.7558 18.1898 64.7558 18.7362C64.8121 18.7362 64.8683 18.7502 64.9387 18.7502C65.2199 17.8535 65.5574 16.9708 65.7824 16.0601C65.9792 15.2615 66.5698 15.5557 67.0198 15.5417C67.5541 15.5277 67.3713 16.004 67.3713 16.2843C67.3854 19.1845 67.3854 22.0708 67.3573 24.9711C67.3573 25.2513 67.1885 25.5175 67.1041 25.7837C67.2026 25.7837 67.4697 25.7837 67.8353 25.7837C67.8353 22.8694 67.8353 19.9972 67.8353 17.1249C67.9057 17.1109 67.976 17.0829 68.0322 17.0689C68.0885 17.195 68.215 17.3211 68.215 17.4472C68.2291 20.1513 68.2291 22.8554 68.2009 25.5735C68.2009 25.7837 67.99 26.148 67.8635 26.162C67.4416 26.204 66.9495 26.218 66.5979 26.0359C65.9511 25.7136 65.8245 25.0832 65.9089 24.3826C65.9792 23.8782 65.923 23.3598 65.8105 22.7994C65.7261 23.0656 65.6417 23.3318 65.5574 23.598C65.3605 24.2705 65.1777 24.943 64.9387 25.5876C64.8543 25.8257 64.5871 26.176 64.4043 26.176C63.9965 26.176 63.5887 26.2881 63.1247 25.9238C62.4919 25.4054 62.6044 24.845 62.6044 24.2565C62.5904 21.5944 62.6044 18.9323 62.6044 16.2702C62.5904 16.0601 62.6185 15.8639 62.6185 15.6257ZM65.8808 19.5908C65.2761 21.5104 64.7418 23.2898 64.1653 25.0411C64.0668 25.3213 63.8559 25.5595 63.7012 25.8117C64.2356 25.9658 64.6012 25.7697 64.7418 25.0551C64.8402 24.4947 65.0933 23.9483 65.2761 23.4018C65.6558 22.1969 66.1198 21.02 65.8808 19.5908Z" fill="#FFF3E7"/>
<path d="M90.2217 17.0975C90.2217 17.8962 90.2217 18.7088 90.2217 19.5354C90.5733 19.5494 90.7983 19.5635 91.1498 19.5915C91.1498 18.4706 91.2061 17.3777 91.1358 16.2989C91.0795 15.5563 91.4451 15.5283 92.0076 15.5283C92.4857 15.5283 92.6685 15.6544 92.6544 16.1588C92.6123 19.1011 92.6123 22.0434 92.5841 24.9717C92.5841 25.2379 92.4576 25.5041 92.3873 25.7703C92.5138 25.7703 92.7951 25.7703 93.1185 25.7703C93.1185 22.87 93.1185 20.0118 93.1185 17.1536C93.1747 17.1255 93.245 17.0975 93.3013 17.0555C93.3857 17.1816 93.5544 17.3077 93.5544 17.4338C93.5544 20.0959 93.5544 22.758 93.5263 25.406C93.5263 25.6722 93.3716 26.1206 93.245 26.1486C92.8232 26.2187 92.3591 26.1766 91.9514 26.0505C91.6982 25.9805 91.5295 25.6863 91.1779 25.364C91.1779 24.3132 91.1779 23.0662 91.1779 21.7632C90.8686 21.7632 90.6295 21.7632 90.2921 21.7632C90.2921 22.9401 90.3202 24.117 90.278 25.308C90.2639 25.6022 90.0671 26.1486 89.9546 26.1486C89.4905 26.1626 89.0687 26.2327 88.5484 25.9104C87.6203 25.336 87.9437 24.5934 87.9437 23.9069C87.9015 21.3429 87.9578 18.7788 87.9015 16.2148C87.8875 15.4442 88.3234 15.5703 88.7874 15.5283C89.364 15.4723 89.4624 15.7665 89.4483 16.2429C89.4202 17.1956 89.4062 18.1624 89.4062 19.1151C89.4062 19.2692 89.5608 19.4234 89.6452 19.5775C89.7296 19.4234 89.8702 19.2692 89.8843 19.1011C89.9124 18.5827 89.8843 18.0783 89.8983 17.5599C89.8983 17.4058 89.9686 17.2516 89.9968 17.0975C90.0671 17.0975 90.1374 17.0975 90.2217 17.0975ZM89.8843 21.483C90.3483 21.4549 90.7139 21.4269 91.0936 21.4129C91.0936 21.3709 91.0795 21.3288 91.0795 21.2868C90.517 21.2868 89.9686 21.2868 89.3921 21.2868C89.3921 22.5618 89.4062 23.7668 89.378 24.9717C89.378 25.2519 89.2093 25.5321 89.1109 25.8124C89.2796 25.7983 89.5468 25.7843 89.8843 25.7703C89.8843 24.3412 89.8843 22.9401 89.8843 21.483Z" fill="#FFF3E7"/>
<path d="M40.3306 20.5439C40.5274 20.4598 40.7805 20.4318 40.9071 20.2917C41.4696 19.6191 41.568 18.8205 41.4414 17.9939C41.3993 17.7277 41.3149 17.4615 41.2446 17.1952C42.1586 17.3213 42.032 19.381 41.0758 20.712C42.2711 21.9029 42.243 23.3321 41.8211 24.7892C41.5258 25.798 40.6821 26.1483 39.7119 26.2043C39.1775 26.2464 38.6291 26.2183 38.0948 26.2183C37.476 26.2043 36.9417 25.6999 36.9417 25.0834C36.9276 22.0711 36.9276 19.0727 36.9136 16.0604C36.9136 15.64 37.0823 15.5419 37.462 15.556C37.9823 15.57 38.4885 15.556 39.0088 15.57C40.2603 15.598 40.9352 16.2285 41.0618 17.4895C41.1743 18.5543 41.1321 19.5911 40.19 20.3757C40.2462 20.4178 40.2884 20.4738 40.3306 20.5439ZM37.8416 25.77C39.0088 25.6719 40.4009 26.3304 41.2446 25.0554C41.9758 23.9626 41.807 22.7296 41.2727 21.5527C41.3711 22.6595 41.5258 23.7804 40.879 24.7892C40.1478 25.9241 38.9244 25.5878 37.8416 25.77ZM39.3322 21.7208C39.2759 21.7909 39.2197 21.8469 39.1634 21.917C39.1634 22.5895 39.1634 23.262 39.1634 23.9626C39.8103 23.6683 40.1196 22.9958 39.8806 22.2672C39.8103 22.0571 39.515 21.9029 39.3322 21.7208ZM39.1494 17.6016C39.1494 18.3301 39.1494 18.9326 39.1494 19.6191C39.7822 19.1007 39.7119 18.4983 39.6275 17.9098C39.6134 17.7977 39.3603 17.7277 39.1494 17.6016ZM38.4604 19.6752C38.5307 19.6752 38.601 19.6892 38.6572 19.6892C38.9806 18.9046 38.3479 17.9378 39.1494 17.1952C38.8682 17.1952 38.6572 17.1952 38.4463 17.1952C38.4604 18.0359 38.4604 18.8626 38.4604 19.6752ZM38.4885 21.3425C38.4885 22.2532 38.4885 23.1499 38.4885 24.0326C38.9947 23.192 38.3338 22.1411 39.0791 21.3425C38.8963 21.3425 38.6854 21.3425 38.4885 21.3425Z" fill="#FFF3E7"/>
<path d="M97.3091 25.9796C98.3919 26.1758 99.0106 25.9656 99.3903 25.0969C99.7278 24.3263 100.009 23.4716 100.079 22.645C100.234 20.8096 100.29 18.9601 99.5731 17.1947C99.6293 17.1527 99.6856 17.1107 99.7418 17.0686C99.8684 17.2367 100.051 17.3909 100.107 17.573C100.614 19.2263 100.656 20.9216 100.459 22.617C100.361 23.4576 100.15 24.3123 99.8121 25.0829C99.1653 26.5401 97.8716 26.7642 96.5217 25.9376C95.4108 25.251 94.9608 24.2563 94.764 23.0653C94.4687 21.2019 94.4405 19.3524 94.9186 17.517C95.0452 17.0266 95.2561 16.5362 95.5374 16.1299C96.2967 14.995 97.8575 14.9389 98.5888 16.1019C99.0247 16.8024 99.3622 17.6851 99.4184 18.4977C99.5168 20.109 99.4887 21.7483 99.32 23.3596C99.2215 24.4945 98.7153 25.5593 97.3091 25.9796ZM97.3654 24.0601C98.2794 22.9813 98.406 18.6659 97.5201 17.4049C96.7748 19.7167 96.9717 21.8884 97.3654 24.0601ZM96.8451 24.2843C96.5498 21.8183 96.2404 19.4225 97.4076 17.1107C96.831 16.8725 96.5217 17.0406 96.3529 17.8112C95.9451 19.6466 95.9311 21.5101 96.3529 23.3596C96.4373 23.6958 96.6764 23.976 96.8451 24.2843Z" fill="#FFF3E7"/>
<path d="M105.268 20.824C105.437 20.4877 105.676 20.1514 105.774 19.7872C105.915 19.1987 105.971 18.5962 106.056 18.0078C106.168 17.2652 106.449 17.055 107.462 17.1391C106.252 17.5314 106.421 18.4281 106.309 19.2407C106.238 19.7451 105.985 20.2355 105.788 20.824C106.548 21.5385 106.379 22.6874 106.632 23.7102C106.688 23.9764 106.941 24.1866 107.096 24.4248C107.195 24.5789 107.377 24.7891 107.349 24.9292C107.237 25.4336 107.04 25.924 106.871 26.4143C106.421 26.2462 105.971 26.0501 105.507 25.8959C104.579 25.5737 104.495 24.7611 104.382 23.9764C104.284 23.2759 104.185 22.5753 103.96 21.8888C103.96 23.0797 103.946 24.2567 103.974 25.4476C103.988 25.994 103.862 26.3303 103.243 26.2182C102.962 26.1762 102.582 26.2042 102.4 26.036C101.978 25.6578 101.514 25.3915 101.542 24.5929C101.64 21.8187 101.598 19.0446 101.556 16.2704C101.542 15.6399 101.781 15.5418 102.329 15.5418C102.892 15.5418 103.145 15.6539 103.103 16.2844C103.046 17.2091 103.06 18.1479 103.074 19.0866C103.074 19.2547 103.257 19.4369 103.356 19.605C103.454 19.4369 103.637 19.2687 103.651 19.1006C103.693 18.4561 103.665 17.8116 103.665 17.1671C103.735 17.1671 103.806 17.1531 103.876 17.1531C103.876 17.7415 103.876 18.33 103.876 18.9185C103.946 18.9185 104.017 18.9325 104.073 18.9325C104.171 18.1899 104.256 17.4473 104.382 16.7047C104.551 15.78 105.113 15.3176 105.985 15.3737C106.056 15.6539 106.14 15.9341 106.182 16.2284C106.238 16.5646 106.337 16.9009 105.831 17.069C105.648 17.1251 105.549 17.5174 105.479 17.7696C105.254 18.6523 105.479 19.6751 104.579 20.4317C104.832 20.5578 105.043 20.6979 105.268 20.824C105.24 22.113 105.732 23.9344 106.224 24.0885C106.056 22.9396 106.196 21.7347 105.268 20.824ZM103.651 25.7979C103.651 24.2567 103.651 22.7995 103.651 21.2863C103.496 21.2723 103.285 21.2723 103.089 21.2583C102.906 22.8275 103.314 24.3267 102.878 25.7979C103.06 25.7979 103.314 25.7979 103.651 25.7979ZM106.07 25.924C106.281 25.98 106.477 26.0361 106.66 26.0921C107.026 24.8311 107.026 24.8311 106.379 24.6209C106.281 25.0273 106.182 25.4336 106.07 25.924Z" fill="#FFF3E7"/>
<path d="M53.0565 20.8803C53.8018 21.6089 53.6611 22.7297 53.8721 23.7245C53.9143 23.9347 53.9846 24.1729 54.1111 24.355C54.2377 24.5652 54.5892 24.7333 54.5752 24.9155C54.547 25.3918 54.3924 25.8682 54.2236 26.3166C54.1955 26.4146 53.844 26.4567 53.6752 26.4146C52.8174 26.2325 52.03 25.3498 51.9034 24.4531C51.805 23.7385 51.7206 23.024 51.6081 22.3094C51.58 22.1133 51.4956 21.9171 51.4253 21.735C51.355 21.749 51.2707 21.763 51.2003 21.777C51.2003 22.2954 51.2003 22.8138 51.2003 23.3322C51.2003 24.0047 51.2285 24.6913 51.1863 25.3638C51.1722 25.644 51.0035 26.1764 50.9191 26.1764C50.4551 26.1764 49.991 26.3866 49.4989 25.9242C49.0208 25.4759 49.063 25.0416 49.063 24.5512C49.063 21.9451 49.063 19.3251 49.063 16.719C49.063 15.416 49.063 15.402 50.4832 15.6542C50.4832 16.9432 50.4832 18.2602 50.4832 19.5773C50.5816 19.5913 50.666 19.6053 50.7644 19.6053C51.13 18.8487 50.7222 17.938 50.9754 17.1534C51.0316 17.1534 51.0879 17.1534 51.1582 17.1534C51.1582 17.8819 51.1582 18.5965 51.1582 19.3251C51.2566 19.3391 51.341 19.3391 51.4394 19.3531C51.5519 18.5965 51.6644 17.8259 51.7628 17.0693C51.8612 16.3688 52.0581 15.7523 52.7471 15.416C53.183 15.2058 53.4783 15.2899 53.5487 15.7943C53.619 16.2987 53.9564 16.8732 53.1409 17.1674C52.9721 17.2374 52.9299 17.7418 52.8878 18.0501C52.7612 18.8907 52.8174 19.7874 52.0581 20.4179C52.6065 20.8663 52.8456 20.4179 52.944 20.0817C53.1268 19.4372 53.2112 18.7646 53.3096 18.1061C53.4221 17.3495 53.6611 17.1254 54.5189 17.1954C53.5908 17.6578 53.6611 18.4564 53.5627 19.213C53.5065 19.7174 53.2674 20.2218 53.0565 20.8803ZM50.4973 21.2306C50.4973 22.5336 50.5113 23.7946 50.4832 25.0416C50.4832 25.3078 50.2863 25.56 50.202 25.7701C50.3285 25.7701 50.5957 25.7701 50.891 25.7701C50.9754 24.2569 50.8347 22.7858 50.9894 21.2726C50.9613 21.2726 50.7644 21.2446 50.4973 21.2306ZM53.2393 24.1028C53.3096 24.0888 53.3799 24.0888 53.4502 24.0748C53.4502 22.5196 53.2393 21.6929 52.7612 21.2586C52.9299 22.2254 53.0846 23.1641 53.2393 24.1028ZM53.8721 24.6072C53.7315 25.1536 53.619 25.56 53.5065 25.9803C53.5487 26.0223 53.6049 26.0784 53.6471 26.1204C53.7736 26.0223 53.9846 25.9383 54.0127 25.8122C54.0971 25.4339 54.4908 25.0275 53.8721 24.6072Z" fill="#FFF3E7"/>
<path d="M19.8848 23.5836C19.7723 24.2842 19.6879 24.9567 19.5473 25.6152C19.5051 25.8254 19.3083 26.1757 19.1817 26.1897C18.7177 26.1897 18.1833 26.1897 17.8037 25.9795C17.3256 25.7133 17.424 25.1809 17.5365 24.6765C18.1411 21.8603 18.7177 19.03 19.2801 16.1998C19.3786 15.7234 19.5473 15.4993 20.0535 15.5553C20.4894 15.5973 20.9113 15.4292 21.0378 16.1578C21.6144 19.2682 22.2893 22.3507 22.9221 25.4471C22.9362 25.4891 22.894 25.5311 22.8799 25.6152C22.669 25.6432 22.4581 25.6853 22.2331 25.7133C22.2331 25.7413 22.2331 25.7553 22.2331 25.7833C22.5284 25.7833 22.8237 25.7833 23.1893 25.7833C22.5987 22.9111 22.0081 20.0528 21.4316 17.2086C21.4878 17.1666 21.5581 17.1386 21.6144 17.0965C21.6988 17.2506 21.8253 17.3908 21.8675 17.5589C22.2331 19.2822 22.5987 21.0056 22.9502 22.7289C23.1471 23.6817 23.3299 24.6344 23.5408 25.5872C23.6393 26.0636 23.4705 26.2177 23.0065 26.2317C21.8253 26.2597 21.4456 25.9795 21.2628 24.8026C21.2347 24.6625 21.2066 24.5364 21.1785 24.3963C20.9675 23.4155 20.9675 23.4155 19.8848 23.5836ZM19.1255 25.7833C19.1958 25.4051 19.238 25.0828 19.2942 24.7605C19.3786 24.2982 19.3504 23.7377 19.6036 23.4295C19.8285 23.1633 20.4051 23.1913 20.9957 23.0372C20.3207 23.0372 19.8285 23.0372 19.252 23.0372C19.1395 23.6817 19.0551 24.3542 18.8864 24.9987C18.8161 25.307 18.577 25.5592 18.4083 25.8394C18.3521 25.8254 18.2818 25.8114 18.2255 25.7833C18.5208 25.7833 18.802 25.7833 19.1255 25.7833ZM19.4348 21.6641C20.0535 21.2298 20.3488 18.988 20.0254 18.0633C19.8426 19.2122 19.6457 20.3611 19.4348 21.6641Z" fill="#FFF3E7"/>
<path d="M25.8328 15.5419C25.8328 17.0971 25.8328 18.5262 25.8328 19.9693C25.9031 19.9693 25.9734 19.9693 26.0437 19.9553C26.0437 19.0166 26.0437 18.0778 26.0437 17.1391C26.1281 17.1251 26.2125 17.1251 26.2969 17.1111C26.6343 18.1199 26.2265 19.2267 26.5218 20.2776C27.1265 20.2776 27.5062 20.1655 27.478 19.4369C27.4359 18.3441 27.4921 17.2372 27.4499 16.1443C27.4218 15.3877 27.928 15.5699 28.3358 15.5278C28.828 15.4718 28.9826 15.6679 28.9826 16.1583C28.9545 19.1006 28.9686 22.043 28.9264 24.9853C28.9264 25.2515 28.7014 25.5317 28.5889 25.7699C28.6592 25.7699 28.9264 25.7699 29.2779 25.7699C29.2779 22.8696 29.2779 19.9974 29.2779 17.1111C29.3342 17.0971 29.3904 17.0691 29.4467 17.055C29.517 17.1671 29.6435 17.2652 29.6435 17.3773C29.6576 20.1094 29.6576 22.8416 29.6295 25.5737C29.6295 25.7699 29.4607 26.1202 29.3342 26.1342C28.9123 26.1762 28.3639 26.2463 28.0686 26.0361C27.7171 25.7839 27.3655 25.3916 27.4358 24.7751C27.5343 24.0185 27.464 23.2479 27.464 22.3932C26.4515 22.5614 25.65 22.3372 25.0032 21.5386C24.5532 20.9781 24.3142 20.3897 24.3142 19.6891C24.3001 18.4702 24.3142 17.2652 24.286 16.0462C24.272 15.6399 24.4266 15.4998 24.8204 15.5278C25.0875 15.5559 25.3688 15.5419 25.8328 15.5419Z" fill="#FFF3E7"/>
<path d="M35.2403 15.7241C35.0294 16.2145 34.9591 16.9431 34.5794 17.1673C34.1435 17.4195 33.4545 17.2233 32.8358 17.2233C32.8358 18.0219 32.8358 18.7785 32.8358 19.5351C32.9061 19.5351 32.9623 19.5351 33.0326 19.5351C33.0326 18.8486 33.0326 18.1621 33.0326 17.4615C33.9326 17.3774 34.72 17.3074 35.5075 17.2373C35.5778 17.6577 35.5075 17.7277 34.8044 17.7137C34.3825 17.6997 33.9748 17.7137 33.4967 17.7137C33.4967 18.3022 33.4967 18.8766 33.4967 19.367C34.1013 19.5632 34.72 19.6752 35.2122 19.9835C35.395 20.0956 35.3247 20.684 35.2966 21.0483C35.2122 22.4775 34.0169 21.3005 33.4826 21.889C33.4826 22.4915 33.4826 23.192 33.4826 23.8505C34.1013 23.9906 34.6778 24.0607 35.2262 24.2569C35.4372 24.3269 35.62 24.6211 35.7043 24.8593C35.7887 25.0835 35.7184 25.3637 35.7184 25.6299C35.7325 26.0363 35.5637 26.2324 35.1419 26.2184C34.1997 26.2044 33.2717 26.2184 32.3295 26.2044C31.7811 26.1904 31.2749 25.5879 31.2749 24.9574C31.2749 22.2673 31.2749 19.5912 31.2749 16.9011C31.2749 15.542 31.2608 15.542 32.653 15.542C33.3982 15.542 34.1435 15.542 34.9028 15.556C34.9731 15.556 35.0294 15.612 35.2403 15.7241ZM34.5513 21.1744C33.9326 21.2024 33.342 21.2305 32.8639 21.2445C32.8639 22.2393 32.8639 23.0939 32.8639 23.9626C32.9342 23.9626 33.0045 23.9626 33.0607 23.9486C33.0607 23.122 33.0607 22.3093 33.0607 21.4687C33.7216 21.4266 34.2982 21.3986 34.9309 21.3706C34.9028 20.9362 34.8888 20.572 34.8606 20.2077C34.7903 20.2077 34.7341 20.2077 34.6638 20.2077C34.6357 20.5019 34.6075 20.7961 34.5513 21.1744ZM35.2684 24.6071C35.1278 24.6772 35.0997 24.6912 35.0856 24.7052C35.0575 24.7612 35.0153 24.8313 35.0294 24.9014C35.1559 25.6019 34.7622 25.7 34.1857 25.672C33.5248 25.6299 32.8498 25.658 32.1889 25.658C32.1889 25.7 32.1889 25.742 32.1889 25.7841C33.2154 25.7841 34.2419 25.7841 35.2825 25.7841C35.2684 25.3777 35.2684 25.0275 35.2684 24.6071Z" fill="#FFF3E7"/>
<path d="M7.77811 17.5032C7.83435 17.3771 7.87654 17.251 7.93279 17.1109C8.01716 17.209 8.14371 17.293 8.15777 17.3911C8.32652 18.1197 8.46713 18.8482 8.70618 19.5628C8.90305 18.3999 9.08585 17.237 9.31084 16.0741C9.35302 15.8499 9.46552 15.4576 9.59207 15.4436C9.94361 15.3875 10.3233 15.4716 10.6889 15.5416C10.7592 15.5556 10.8295 15.8219 10.8014 15.962C10.267 18.6941 9.71863 21.4403 9.15616 24.1724C8.97336 25.0691 8.60775 25.7977 7.39844 25.9799C8.57963 26.134 9.05773 25.8818 9.28271 24.901C9.74675 22.8414 10.1405 20.7537 10.5623 18.6801C10.6608 18.2318 10.7451 17.7694 10.8436 17.321C10.8717 17.1809 10.8998 17.0268 10.942 16.8867C11.0404 16.9708 11.1389 17.0548 11.2373 17.1389C10.942 18.6521 10.6608 20.1653 10.3655 21.6785C10.1545 22.7433 9.95768 23.8222 9.70457 24.873C9.52176 25.6296 9.1421 26.3021 8.27027 26.4002C7.48281 26.4843 6.70942 26.2321 6.40006 25.4895C6.20319 25.0131 6.35787 24.3826 6.35787 23.7381C7.7078 24.4667 7.96091 24.3266 8.17184 22.8834C7.51093 22.9395 7.38438 22.5051 7.25782 21.9727C6.7516 19.871 6.20319 17.7834 5.65479 15.6537C5.85165 15.5837 6.02039 15.4996 6.18913 15.4576C7.10314 15.2474 7.21564 15.3175 7.42656 16.2002C7.525 16.6205 7.67968 17.0408 7.80623 17.4612C7.97497 18.596 8.15777 19.7309 8.32652 20.8518C8.41089 20.8378 8.49526 20.8238 8.59369 20.7958C8.31245 19.7309 8.04528 18.6101 7.77811 17.5032Z" fill="#FFF3E7"/>
<path d="M74.1075 21.7623C74.1075 23.0093 74.1075 24.2983 74.0934 25.5733C74.0934 25.6293 73.9106 25.6854 73.7418 25.7834C74.0793 25.7834 74.3465 25.7834 74.684 25.7834C74.684 24.4804 74.684 23.2054 74.684 21.9444C77.2432 21.5241 77.6792 20.7115 77.2995 17.1667C77.8198 17.3208 77.9604 18.0494 77.7776 19.6887C77.6229 21.2299 76.723 22.0705 75.0637 22.2106C75.0637 23.1914 75.0918 24.1862 75.0496 25.181C75.0355 25.5312 74.8668 26.1477 74.698 26.1758C74.234 26.2318 73.784 26.3299 73.2356 25.8955C72.6591 25.4192 72.7294 24.9708 72.7294 24.4524C72.7153 21.7203 72.7294 18.9881 72.7153 16.256C72.7153 15.7516 72.8278 15.5274 73.3762 15.5694C73.8684 15.6115 74.3606 15.5694 74.8527 15.5834C75.9777 15.6115 76.5402 16.0178 76.8214 17.0966C77.0886 18.1334 77.0745 19.1703 76.6808 20.179C76.273 21.1738 75.9355 21.37 74.1075 21.7623ZM74.1637 17.1947C74.1637 18.0634 74.1496 18.862 74.1778 19.6466C74.1778 19.7587 74.3324 19.8708 74.4309 19.9829C74.5153 19.8708 74.6699 19.7727 74.6699 19.6466C74.6981 19.0582 74.6699 18.4837 74.698 17.8953C74.7121 17.6711 74.8387 17.4469 74.923 17.1947C74.7121 17.1947 74.4731 17.1947 74.1637 17.1947ZM74.9934 19.7587C75.6543 19.2403 75.5558 18.5818 75.4855 17.9233C75.4715 17.8392 75.3027 17.7551 75.2183 17.6851C75.148 17.7972 75.0074 17.9233 75.0074 18.0354C74.9793 18.6098 74.9934 19.1843 74.9934 19.7587Z" fill="#FFF3E7"/>
<path d="M16.9175 17.2097C16.7347 17.5459 16.5659 17.8822 16.355 18.2885C16.13 18.0783 15.9894 17.9382 15.8347 17.7981C15.2722 17.2797 14.752 17.3778 14.4989 18.1064C14.3442 18.5407 14.2457 19.0171 14.2457 19.4654C14.2457 20.6704 14.2739 21.8893 14.3723 23.0943C14.4848 24.4253 14.7238 24.5234 15.8066 23.7388C16.3972 23.9349 16.7487 24.2852 16.9315 24.9157C17.0581 25.3921 16.9456 25.6723 16.6081 25.9525C15.7503 26.6671 14.4145 26.6811 13.6833 25.8404C13.1349 25.2099 12.6146 24.4393 12.4037 23.6547C11.8693 21.6231 11.9115 19.5355 12.4599 17.5039C12.6286 16.8874 13.0083 16.2709 13.4442 15.7805C14.0348 15.122 15.0191 15.122 15.7503 15.6404C16.2566 16.0047 16.5519 16.411 16.1722 17.0415C16.0738 17.1957 16.116 17.4198 16.0738 17.7701C16.3831 17.4338 16.5519 17.2517 16.7347 17.0555C16.7909 17.0976 16.8472 17.1536 16.9175 17.2097ZM15.1738 17.0415C14.2739 16.8734 13.8801 17.2797 13.8098 17.8822C13.6692 19.0311 13.613 20.194 13.5989 21.3569C13.5848 22.0154 13.7114 22.6599 13.7817 23.3185C13.9364 21.8473 13.9083 20.3902 13.9364 18.919C13.9504 18.1344 14.2317 17.4759 15.1738 17.0415ZM14.5692 26.0226C15.3566 26.1767 16.0175 26.0786 16.4816 25.5182C16.6222 25.3501 16.5097 24.9577 16.5097 24.6775C16.2847 25.7424 15.3847 25.7704 14.5692 26.0226Z" fill="#FFF3E7"/>
<path d="M45.7447 24.4107C46.2369 24.0884 46.5322 23.9063 46.6868 23.7942C47.0525 23.8783 47.3056 23.9063 47.5446 24.0044C48.0087 24.2005 48.1493 25.5596 47.7555 25.8958C46.9681 26.5824 45.7447 26.6244 44.9151 25.9799C44.0714 25.3354 43.4948 24.5228 43.298 23.4579C42.9183 21.3703 42.9042 19.2827 43.4948 17.2371C43.8745 15.934 44.662 15.2195 45.6603 15.3035C46.0963 15.3316 46.5462 15.5417 46.9259 15.7799C47.3196 16.0321 47.5024 16.4104 47.2071 16.9148C47.0946 17.0969 47.165 17.3772 47.1509 17.7835C47.4743 17.4052 47.643 17.223 47.7977 17.0409C47.854 17.0829 47.9243 17.125 47.9805 17.153C47.8259 17.5033 47.6712 17.8535 47.4743 18.2739C47.2634 18.1057 47.1509 17.9796 47.0243 17.9096C46.729 17.7555 46.3353 17.4472 46.1525 17.5453C45.8572 17.6854 45.5057 18.0917 45.4916 18.414C45.3932 19.8291 45.3791 21.2442 45.4072 22.6593C45.4072 23.1917 45.6041 23.7241 45.7447 24.4107ZM46.1103 17.0829C45.3088 16.9008 44.8166 17.181 44.7604 17.9936C44.662 19.5349 44.676 21.0901 44.7041 22.6453C44.7182 23.0936 44.9291 23.542 45.0979 24.1305C45.0276 22.6593 44.901 21.3423 44.9432 20.0393C44.9713 18.9604 44.8448 17.7555 46.1103 17.0829ZM47.4884 24.4247C47.4321 24.4387 47.3618 24.4667 47.3056 24.4807C47.4884 25.6857 46.4337 25.6717 45.7166 26.036C46.6306 26.12 47.4462 25.9379 47.5868 25.5035C47.6852 25.1953 47.5306 24.789 47.4884 24.4247Z" fill="#FFF3E7"/>
<path d="M92.7671 4.78147C92.2608 4.78147 91.7968 4.78147 91.3328 4.78147C84.8222 4.78147 78.3257 4.78147 71.8151 4.78147C71.6323 4.78147 71.4354 4.80949 71.2526 4.75345C71.1683 4.72542 71.0698 4.5713 71.0558 4.45922C71.0417 4.38916 71.1683 4.26306 71.2526 4.23504C71.4073 4.19301 71.576 4.22103 71.7448 4.22103C78.5507 4.22103 85.3565 4.22103 92.1765 4.22103C92.4858 4.22103 92.9639 4.06691 92.7671 4.78147Z" fill="#FFF3E7"/>
<path d="M32.7797 4.2207C36.1264 4.2207 39.4731 4.2207 42.8198 4.23471C43.0307 4.23471 43.2416 4.38883 43.4385 4.47289C43.2276 4.57097 43.0166 4.76712 42.8057 4.76712C36.1123 4.78113 29.4049 4.78113 22.7115 4.76712C22.5006 4.76712 22.2896 4.613 22.0928 4.52894C22.3037 4.43086 22.5146 4.23471 22.7256 4.23471C26.0863 4.2207 29.433 4.2207 32.7797 4.2207Z" fill="#FFF3E7"/>
<path d="M87.2971 2.93232C81.8692 2.93232 76.4977 2.93232 71.1261 2.93232C71.0839 2.87628 71.0417 2.82023 70.9995 2.76419C71.1401 2.63809 71.2526 2.49798 71.4214 2.41391C71.5339 2.35786 71.7026 2.3999 71.8432 2.3999C76.807 2.3999 81.7567 2.3999 86.7205 2.3999C87.0158 2.3999 87.4799 2.2738 87.2971 2.93232Z" fill="#FFF3E7"/>
<path d="M35.465 2.96023C33.0745 2.96023 30.684 2.96023 28.3076 2.96023C28.1951 2.96023 28.0545 2.98825 27.956 2.94622C27.7873 2.87616 27.6326 2.75006 27.4639 2.65198C27.6185 2.56791 27.7873 2.41379 27.942 2.41379C29.5309 2.39978 31.1199 2.39978 32.723 2.39978C36.0697 2.39978 39.4164 2.39978 42.7631 2.39978C42.8052 2.39978 42.8615 2.38577 42.9037 2.39978C43.0865 2.49786 43.2833 2.60995 43.4661 2.70803C43.2833 2.79209 43.1005 2.94622 42.9177 2.94622C40.4288 2.97424 37.9399 2.96023 35.465 2.96023Z" fill="#FFF3E7"/>
<path d="M48.4869 37.9592C48.4869 38.7718 48.4728 39.5845 48.4869 40.4111C48.5009 40.8455 48.3322 41.0276 47.9947 40.9295C47.9947 39.5144 47.9807 38.1133 48.0088 36.7263C48.0088 36.6142 48.2478 36.39 48.3463 36.404C48.515 36.432 48.7259 36.5721 48.7962 36.7263C49.0494 37.3708 49.2462 38.0293 49.5275 38.8699C49.7946 38.0713 49.9774 37.4408 50.2305 36.8523C50.3149 36.6562 50.5961 36.5301 50.793 36.376C50.8774 36.5581 51.0321 36.7403 51.0461 36.9364C51.1445 38.2394 51.2008 39.5424 51.2852 40.9015C51.0883 40.9155 50.8914 40.9155 50.6664 40.9295C50.6243 39.9348 50.568 38.982 50.5258 38.0293C50.4836 38.0153 50.4415 38.0153 50.3993 38.0012C50.2165 38.5197 50.0337 39.0521 49.8227 39.5705C49.7665 39.7106 49.5978 39.8087 49.4712 39.9348C49.3728 39.8087 49.2462 39.7106 49.19 39.5705C48.9931 39.0381 48.8103 38.4916 48.6275 37.9452C48.5853 37.9312 48.5431 37.9452 48.4869 37.9592Z" fill="#FFF3E7"/>
<path d="M54.3497 4.47274C54.406 4.24856 54.4622 4.05241 54.5325 3.82823C55.1653 3.94032 55.7278 3.92631 55.9668 3.19774C54.4904 3.33785 53.731 2.30103 54.2794 0.927956C54.5185 0.325482 54.9685 0.03125 55.6294 0.03125C56.2762 0.03125 56.6981 0.367515 56.8668 0.955977C57.148 1.89471 57.1058 2.84746 56.6277 3.73016C56.1778 4.57082 55.3622 4.83702 54.3497 4.47274ZM56.3465 1.62851C55.995 1.29224 55.7559 1.06806 55.5169 0.843889C55.3481 1.12411 55.0388 1.41834 55.0388 1.69856C55.0388 1.95076 55.3622 2.21697 55.545 2.46917C55.784 2.23098 56.009 1.99279 56.3465 1.62851Z" fill="#FFF3E7"/>
<path d="M29.0251 36.9082C30.1781 37.1884 30.8531 37.8469 31.0921 38.9118C30.7687 39.9066 30.1078 40.7472 28.997 40.7752C28.2376 40.8033 27.0705 39.5002 27.1689 38.9118C27.2392 38.4494 27.5627 37.959 27.9001 37.6088C28.2236 37.2585 28.7157 37.0903 29.0251 36.9082ZM28.4767 40.3129C28.6032 39.8365 28.7017 39.5143 28.786 39.192C28.4485 39.2761 28.1111 39.3601 27.6752 39.4722C27.9423 39.7524 28.1814 40.0046 28.4767 40.3129ZM29.7844 40.2989C30.0656 39.9906 30.3047 39.7384 30.5578 39.4722C30.1219 39.3601 29.7844 39.2761 29.461 39.206C29.5454 39.5283 29.6438 39.8365 29.7844 40.2989ZM27.5486 38.2112C28.1251 38.3513 28.4485 38.4214 28.786 38.4914C28.6876 38.1552 28.6032 37.8329 28.4626 37.3706C28.1251 37.6788 27.8861 37.903 27.5486 38.2112ZM30.6844 38.1972C30.3609 37.903 30.1078 37.6788 29.7985 37.3846C29.6579 37.861 29.5735 38.1832 29.4751 38.5055C29.8125 38.4214 30.136 38.3373 30.6844 38.1972Z" fill="#FFF3E7"/>
<path d="M86.0316 36.9229C87.0441 37.1891 87.7612 37.7775 87.9721 38.9544C87.48 39.9913 87.48 39.9913 85.8769 40.958C85.2442 40.3415 84.5692 39.683 83.9927 39.1226C84.3442 37.8756 84.9911 37.175 86.0316 36.9229ZM84.4427 38.2399C85.877 38.408 86.4113 39.1786 86.7207 40.2855C86.9878 39.9913 87.2128 39.7531 87.48 39.4729C86.2988 39.2347 85.666 38.5762 85.4129 37.3572C85.0754 37.6654 84.8083 37.9036 84.4427 38.2399ZM85.2723 40.3696C85.3426 40.3135 85.4129 40.2575 85.4692 40.1874C85.5254 39.8932 85.5676 39.599 85.6379 39.2487C85.3004 39.3187 85.0051 39.3748 84.6114 39.4588C84.8645 39.8091 85.0614 40.0893 85.2723 40.3696ZM86.3972 38.5201C86.7488 38.408 87.0441 38.324 87.494 38.1838C87.2269 37.9036 87.03 37.6794 86.7347 37.3712C86.58 37.8756 86.4957 38.1838 86.3972 38.5201Z" fill="#FFF3E7"/>
<path d="M67.9335 37.7491C67.4976 38.6738 67.0617 39.5985 66.5976 40.4952C66.4992 40.6914 66.2039 40.7894 65.993 40.9295C65.9086 40.7194 65.7398 40.5232 65.7398 40.3131C65.7117 39.1782 65.6977 38.0293 65.7258 36.8944C65.7258 36.7122 65.9648 36.5441 66.0773 36.376C66.1758 36.5441 66.3726 36.7122 66.3726 36.8804C66.4007 37.707 66.3867 38.5337 66.5132 39.4024C66.921 38.5617 67.3148 37.707 67.7647 36.8804C67.8772 36.6702 68.1866 36.5441 68.3975 36.376C68.496 36.6142 68.6647 36.8664 68.6788 37.1045C68.7069 38.1974 68.7069 39.2903 68.6788 40.3831C68.6788 40.5653 68.4678 40.7334 68.3553 40.9155C68.2569 40.7474 68.0882 40.5793 68.0741 40.3971C68.046 39.5144 68.06 38.6317 68.06 37.7491C68.0179 37.7631 67.9757 37.7491 67.9335 37.7491Z" fill="#FFF3E7"/>
<path d="M33.834 36.3903C34.6496 36.5304 35.5355 36.068 36.1542 36.8947C36.4776 37.315 36.351 37.8754 35.887 38.576C36.5057 38.9823 36.6042 39.5708 36.3651 40.2153C36.112 40.9158 35.5073 40.9719 34.8605 40.9438C34.5371 40.9298 34.2137 40.9438 33.834 40.9438C33.834 39.4166 33.834 37.9735 33.834 36.3903ZM34.5089 38.9543C34.5089 39.4587 34.5089 39.907 34.5089 40.3554C35.4933 40.4114 35.7604 40.2433 35.7464 39.6268C35.7323 39.0103 35.4652 38.8702 34.5089 38.9543ZM34.4949 36.9927C34.4949 37.4831 34.4949 37.9175 34.4949 38.3938C35.0574 38.3518 35.5917 38.3518 35.6058 37.6232C35.6198 36.8106 35.0152 37.0208 34.4949 36.9927Z" fill="#FFF3E7"/>
<path d="M57.1064 40.9442C57.1064 39.417 57.1064 37.9599 57.1064 36.4187C57.908 36.5027 58.7657 36.0964 59.3985 36.881C59.736 37.3014 59.5953 37.8758 59.1173 38.5203C59.75 39.1788 59.9188 39.7253 59.5672 40.2997C58.9626 41.2945 57.9923 40.8181 57.1064 40.9442ZM57.7252 38.7725C57.7252 39.445 57.7252 39.8794 57.7252 40.4959C58.1751 40.3417 58.597 40.2857 58.8641 40.0615C59.0048 39.9354 59.0048 39.375 58.8641 39.2489C58.597 39.0107 58.1751 38.9406 57.7252 38.7725ZM57.7252 38.5063C58.1329 38.3242 58.5267 38.2541 58.7235 38.0159C58.8641 37.8478 58.8641 37.3434 58.7095 37.1893C58.5126 36.9931 58.1048 37.0071 57.7252 36.9091C57.7252 37.4695 57.7252 37.9038 57.7252 38.5063Z" fill="#FFF3E7"/>
<path d="M58.4841 2.60982C58.4701 2.38565 58.456 2.16147 58.442 1.89526C58.6529 1.86724 58.8357 1.89526 58.9622 1.82521C59.1591 1.72713 59.37 1.60103 59.4685 1.4329C59.5247 1.32081 59.4403 0.998561 59.3419 0.942517C59.1591 0.858451 58.8216 0.81642 58.6951 0.928507C58.3013 1.27878 58.0763 1.08263 57.8514 0.760374C58.3154 -0.0102297 59.2294 -0.234405 59.9325 0.26999C60.509 0.690319 60.5231 1.46092 59.9606 2.17548C60.6215 2.87603 60.72 3.54856 60.2137 4.13702C59.6794 4.78153 58.6669 4.85158 57.6826 4.26312C57.7529 4.06697 57.8232 3.8568 57.8935 3.66065C58.4982 3.67466 59.2575 4.31916 59.5388 3.38043C59.7778 2.60982 59.0185 2.69389 58.4841 2.60982Z" fill="#FFF3E7"/>
<path d="M83.7248 0.844122C83.4857 0.914178 83.2467 1.02627 83.0217 1.02627C79.225 1.04028 75.4424 1.02627 71.6458 1.01226C71.4489 1.01226 71.252 0.830111 71.0552 0.746044C71.252 0.647966 71.4489 0.47983 71.6598 0.47983C75.4565 0.465819 79.2391 0.46582 83.0358 0.46582C83.2608 0.46582 83.4858 0.563897 83.7107 0.619942C83.7107 0.675987 83.7107 0.760055 83.7248 0.844122Z" fill="#FFF3E7"/>
<path d="M55.6866 38.7165C55.5881 39.1929 55.5459 39.6553 55.4053 40.0896C55.2085 40.7061 54.7585 41.0003 54.0835 41.0003C53.3945 41.0003 52.8883 40.6501 52.8039 40.0476C52.6773 39.1649 52.6633 38.2542 52.7898 37.3855C52.8742 36.727 53.3945 36.3066 54.1398 36.3207C54.8429 36.3347 55.2647 36.741 55.4475 37.3715C55.56 37.8058 55.6022 38.2682 55.6866 38.7165ZM53.2398 38.6605C53.3101 39.1088 53.3242 39.5852 53.4648 40.0056C53.5351 40.2157 53.8585 40.4679 54.0554 40.4539C54.2944 40.4399 54.7022 40.1737 54.7163 40.0056C54.7866 39.1229 54.7725 38.2262 54.7022 37.3435C54.6882 37.1753 54.2804 36.9091 54.0413 36.9091C53.8445 36.8951 53.521 37.1613 53.4507 37.3575C53.3242 37.7638 53.3101 38.2121 53.2398 38.6605Z" fill="#FFF3E7"/>
<path d="M63.0686 4.59969C63.0404 4.29144 63.0123 4.02523 62.9842 3.67496C62.4358 3.67496 61.9014 3.67496 61.2124 3.67496C61.353 3.18457 61.4093 2.77825 61.5921 2.42798C61.9295 1.76946 62.3795 1.16698 62.717 0.494453C62.9842 -0.0519779 63.2654 -0.0379664 63.7576 0.326321C63.2654 1.16698 62.7592 2.00764 62.2108 2.93237C62.5201 2.94638 62.7451 2.9604 63.0264 2.97441C63.0967 2.59611 63.1529 2.23182 63.2232 1.8255C63.4623 1.81149 63.7013 1.79748 63.9263 1.79748C64.1372 2.27386 63.7154 2.93237 64.4747 3.10051C64.5028 3.11452 64.4888 3.57688 64.4607 3.57688C63.8279 3.67496 64.0669 4.20738 63.9544 4.59969C63.6732 4.59969 63.406 4.59969 63.0686 4.59969Z" fill="#FFF3E7"/>
<path d="M31.3168 1.026C31.1058 0.437522 31.4433 0.451533 31.7949 0.451533C35.479 0.451533 39.1491 0.451533 42.8333 0.451533C42.9317 0.451533 43.0302 0.423511 43.1145 0.465545C43.2411 0.535601 43.3395 0.633679 43.452 0.731758C43.3395 0.843848 43.227 1.02599 43.1005 1.04001C42.7489 1.08204 42.3974 1.04001 42.0459 1.04001C38.6992 1.04001 35.3525 1.04001 31.9917 1.04001C31.7667 1.02599 31.5277 1.026 31.3168 1.026Z" fill="#FFF3E7"/>
<path d="M63.4337 40.8452C63.4337 40.2147 63.4337 39.5982 63.4337 38.9117C62.9134 38.9117 62.4353 38.9117 61.8728 38.9117C61.8728 39.388 61.8447 39.8924 61.8869 40.3828C61.915 40.8732 61.7181 41.0133 61.1979 40.8592C61.1979 39.4861 61.1838 38.085 61.2119 36.6979C61.2119 36.5858 61.4228 36.4738 61.5213 36.3477C61.6478 36.4738 61.8588 36.5999 61.8588 36.74C61.9009 37.2163 61.8728 37.7067 61.8728 38.2251C62.3931 38.2251 62.8712 38.2251 63.4055 38.2251C63.4055 37.7347 63.3774 37.2724 63.4196 36.824C63.4337 36.6559 63.6305 36.5018 63.743 36.3477C63.8415 36.5018 64.0383 36.6419 64.0383 36.796C64.0524 38.029 64.0524 39.2619 64.0102 40.4949C64.0102 40.663 63.7711 40.8312 63.6446 40.9993C63.5883 40.9433 63.518 40.9012 63.4337 40.8452Z" fill="#FFF3E7"/>
<path d="M71.0273 38.2117C71.5757 38.3938 71.8148 38.2117 71.9132 37.7073C71.9976 37.329 72.1241 36.9367 72.3351 36.6144C72.6585 36.138 73.01 36.2081 73.2491 36.7545C72.0398 37.5111 72.1101 39.7529 73.474 40.6216C73.2631 40.7617 73.0663 40.9999 72.9397 40.9578C72.6725 40.8878 72.3772 40.7056 72.2366 40.4955C72.0538 40.1872 72.0257 39.7949 71.9273 39.4306C71.7585 38.8702 71.7304 38.8562 71.0414 38.8702C71.0414 39.5147 71.0414 40.1592 71.0414 40.8037C70.5492 41.0139 70.3664 40.9158 70.3805 40.3974C70.3946 39.2064 70.3524 38.0155 70.3805 36.8386C70.3805 36.6705 70.5914 36.5163 70.7039 36.3482C70.8164 36.5023 71.0133 36.6564 71.0273 36.8246C71.0695 37.301 71.0273 37.7633 71.0273 38.2117Z" fill="#FFF3E7"/>
<path d="M43.3115 40.831C43.7334 39.4439 44.1552 38.0568 44.6052 36.6697C44.6474 36.5436 44.8724 36.3755 44.9849 36.4035C45.1536 36.4455 45.3645 36.5996 45.4208 36.7538C45.8567 38.1128 46.2645 39.4859 46.6723 40.859C46.1661 41.0411 45.8989 40.929 45.8145 40.3966C45.7442 39.9483 45.6176 39.584 44.9849 39.612C44.4646 39.64 44.2115 39.7801 44.1693 40.2845C44.113 40.7609 43.9443 41.0972 43.3115 40.831ZM45.4489 39.0516C45.2942 38.5051 45.1396 38.0288 44.9567 37.3702C44.788 38.0428 44.6615 38.5332 44.5208 39.0516C44.8302 39.0516 45.0833 39.0516 45.4489 39.0516Z" fill="#FFF3E7"/>
<path d="M77.5386 40.8325C76.9199 41.0987 76.7511 40.7905 76.6808 40.3842C76.5964 39.9078 76.484 39.6136 75.8652 39.6136C75.2746 39.6136 75.0778 39.8798 75.0215 40.3702C74.9653 40.9026 74.7122 41.0567 74.1919 40.8745C74.5997 39.4875 75.0075 38.1144 75.4434 36.7413C75.4856 36.5872 75.7246 36.4331 75.8934 36.4051C75.9918 36.391 76.2168 36.5732 76.259 36.7133C76.6808 38.0724 77.1027 39.4454 77.5386 40.8325ZM76.2871 39.0531C76.1465 38.5207 76.034 38.0584 75.9074 37.582C75.8652 37.582 75.823 37.582 75.7809 37.568C75.6402 38.0583 75.5137 38.5347 75.359 39.0531C75.7106 39.0531 75.9637 39.0531 76.2871 39.0531Z" fill="#FFF3E7"/>
<path d="M79.6757 39.1642C79.3804 39.7247 79.1554 40.2151 78.8601 40.6634C78.7758 40.7895 78.5367 40.8315 78.368 40.9016C78.3398 40.7335 78.2976 40.5653 78.3117 40.3972C78.3258 40.2851 78.3961 40.173 78.4664 40.089C79.3242 39.0802 79.3242 38.0854 78.4664 37.0766C78.3539 36.9365 78.2836 36.7544 78.1992 36.6002C78.7617 36.264 78.7617 36.264 79.0851 36.8664C79.2679 37.2167 79.4507 37.567 79.6616 37.9593C79.971 37.3848 80.2522 36.8664 80.5616 36.292C80.7585 36.3761 80.9413 36.4601 81.1662 36.5582C81.0397 36.7824 80.9694 36.9785 80.8428 37.1326C79.971 38.0854 80.0132 39.0241 80.8428 39.9909C81.0116 40.187 81.11 40.4672 81.2366 40.7054C80.6319 41.2238 80.5053 40.6914 80.3225 40.3552C80.1257 40.0189 79.9288 39.6406 79.6757 39.1642Z" fill="#FFF3E7"/>
<path d="M39.5151 40.7615C39.5573 40.6354 39.5714 40.5653 39.6136 40.5093C40.612 39.2203 40.9213 37.9173 39.4448 36.6563C39.7401 36.5022 39.9089 36.4041 40.1198 36.292C40.4151 36.8384 40.6963 37.3708 41.0197 37.9733C41.2869 37.4969 41.4978 37.0486 41.765 36.6423C41.8634 36.5022 42.1166 36.4461 42.2853 36.348C42.2994 36.5442 42.3978 36.8384 42.2994 36.9365C41.2166 38.0854 41.4557 39.1923 42.3556 40.2991C42.44 40.4112 42.4962 40.5373 42.5806 40.6914C42.2572 41.0137 42.0181 41.0697 41.7931 40.6074C41.5681 40.145 41.315 39.7107 41.0197 39.1642C40.7807 39.6126 40.6119 39.9629 40.4151 40.3131C40.2463 40.6494 40.1479 41.1958 39.5151 40.7615Z" fill="#FFF3E7"/>
<path d="M53.2111 4.52869C52.5221 4.52869 51.819 4.52869 51.13 4.52869C50.8488 3.85616 51.3128 3.82814 51.7487 3.78611C51.7487 2.95946 51.7487 2.17485 51.7487 1.32018C51.4956 1.44628 51.2706 1.54436 50.9613 1.69848C50.905 1.46029 50.7644 1.23611 50.8206 1.08199C50.9613 0.689686 52.1706 0.143258 52.7049 0.199302C52.7049 1.3482 52.7049 2.51111 52.7049 3.49188C53.0143 3.87017 53.2111 4.10836 53.4221 4.36056C53.3518 4.40259 53.2815 4.47264 53.2111 4.52869Z" fill="#FFF3E7"/>
<path d="M48.3878 1.95086C47.8676 2.02091 47.2629 2.02091 47.2348 2.133C47.1223 2.62338 47.1082 3.16981 47.2207 3.6602C47.2488 3.7863 47.8535 3.7863 48.205 3.85635C48.2332 3.80031 48.2613 3.74426 48.2753 3.67421C48.3597 3.87036 48.4441 4.08053 48.5285 4.26267C47.5723 5.01926 46.377 4.62696 46.1099 3.49207C45.7724 2.07695 46.6583 0.900032 47.9097 1.12421C48.5847 1.27833 48.6831 1.54454 48.3878 1.95086Z" fill="#FFF3E7"/>
<path d="M64.362 13.0754C64.4183 13.2296 64.4464 13.3837 64.5308 13.4818C64.6714 13.6359 64.8261 13.846 65.0089 13.8741C65.1214 13.8881 65.3885 13.6499 65.4026 13.5098C65.501 12.9493 65.9088 12.9493 66.2322 13.1175C66.415 13.2156 66.5416 13.6639 66.4713 13.9021C66.3025 14.5746 65.8526 15.051 65.1214 15.1351C64.4745 15.2051 63.8839 14.8128 63.5886 14.1543C63.209 13.3276 63.3918 13.0614 64.362 13.0754Z" fill="#FFF3E7"/>
<path d="M67.5118 2.07657C67.5118 2.90322 67.5118 3.68783 67.5118 4.51448C67.1744 4.51448 66.8931 4.51448 66.5978 4.51448C66.5697 4.36036 66.5557 4.27629 66.5557 4.17821C66.5557 3.25349 66.5557 2.31475 66.5557 1.33398C67.315 1.33398 68.0462 1.33398 68.7914 1.33398C68.7633 2.00651 68.7633 2.00651 67.5118 2.07657Z" fill="#FFF3E7"/>
</svg>
