<svg width="25" height="25" viewBox="0 0 25 25" fill="none" xmlns="http://www.w3.org/2000/svg">
<circle cx="12.5" cy="12.5" r="12" stroke="#FAEEE2"/>
<path d="M14.3324 11.5348C14.3382 11.4821 14.3336 11.4289 14.3189 11.378C14.3041 11.3272 14.2795 11.2797 14.2464 11.2384C14.2133 11.197 14.1723 11.1626 14.1259 11.1371C14.0795 11.1116 14.0286 11.0954 13.9759 11.0896C13.9233 11.0838 13.87 11.0884 13.8192 11.1031C13.7683 11.1179 13.7209 11.1425 13.6795 11.1756C13.6382 11.2087 13.6038 11.2497 13.5783 11.2961C13.5527 11.3425 13.5366 11.3934 13.5308 11.4461C13.4978 11.7421 13.372 12.0201 13.1713 12.2403C12.9707 12.4605 12.7055 12.6116 12.4138 12.6719C12.309 12.6935 12.2171 12.7558 12.1583 12.8452C12.0994 12.9346 12.0785 13.0437 12.1001 13.1485C12.1217 13.2533 12.1841 13.3452 12.2734 13.4041C12.3628 13.4629 12.4719 13.4838 12.5767 13.4622C13.0354 13.3675 13.4523 13.13 13.7677 12.7837C14.0831 12.4375 14.2808 12.0003 14.3324 11.5348Z" fill="#FAEEE2"/>
<path d="M9.30509 7.25806C9.19814 7.25806 9.09558 7.30054 9.01996 7.37616C8.94434 7.45178 8.90186 7.55434 8.90186 7.66129V11.6936C8.90159 12.4795 9.18823 13.2385 9.70795 13.828C10.2277 14.4175 10.9447 14.797 11.7245 14.8953V17.7421H10.5148C10.4078 17.7421 10.3053 17.7846 10.2297 17.8602C10.154 17.9358 10.1116 18.0384 10.1116 18.1453C10.1116 18.2523 10.154 18.3548 10.2297 18.4305C10.3053 18.5061 10.4078 18.5486 10.5148 18.5486H13.7406C13.8476 18.5486 13.9501 18.5061 14.0258 18.4305C14.1014 18.3548 14.1439 18.2523 14.1439 18.1453C14.1439 18.0384 14.1014 17.9358 14.0258 17.8602C13.9501 17.7846 13.8476 17.7421 13.7406 17.7421H12.5309V14.9195V14.8953C13.3107 14.797 14.0277 14.4175 14.5475 13.828C15.0672 13.2385 15.3538 12.4795 15.3536 11.6936V7.66129C15.3536 7.55434 15.3111 7.45178 15.2355 7.37616C15.1598 7.30054 15.0573 7.25806 14.9503 7.25806H9.30509ZM9.70832 9.67745V8.06452H14.5471V9.67745H9.70832ZM9.70832 10.4839H14.5471V11.6936C14.5471 12.3353 14.2922 12.9507 13.8385 13.4044C13.3848 13.8581 12.7694 14.113 12.1277 14.113C11.486 14.113 10.8707 13.8581 10.4169 13.4044C9.96322 12.9507 9.70832 12.3353 9.70832 11.6936V10.4839Z" fill="#FAEEE2"/>
</svg>
