<svg width="25" height="25" viewBox="0 0 25 25" fill="none" xmlns="http://www.w3.org/2000/svg">
<circle cx="12.5" cy="12.5" r="12" stroke="#FAEEE2"/>
<path d="M9.19368 7.74207C9.10812 7.74207 9.02607 7.77605 8.96558 7.83655C8.90508 7.89705 8.87109 7.9791 8.87109 8.06465V11.6131C8.87108 12.4128 9.16812 13.184 9.70458 13.7771C10.241 14.3702 10.9787 14.7429 11.7744 14.8228V17.4196H10.484C10.3985 17.4196 10.3164 17.4536 10.2559 17.5141C10.1954 17.5746 10.1614 17.6567 10.1614 17.7422C10.1614 17.8278 10.1954 17.9098 10.2559 17.9703C10.3164 18.0308 10.3985 18.0648 10.484 18.0648H13.7099C13.7954 18.0648 13.8775 18.0308 13.938 17.9703C13.9985 17.9098 14.0325 17.8278 14.0325 17.7422C14.0325 17.6567 13.9985 17.5746 13.938 17.5141C13.8775 17.4536 13.7954 17.4196 13.7099 17.4196H12.4195V14.839V14.8228C13.2152 14.7429 13.9529 14.3702 14.4893 13.7771C15.0258 13.184 15.3228 12.4128 15.3228 11.6131V8.06465C15.3228 7.9791 15.2888 7.89705 15.2283 7.83655C15.1678 7.77605 15.0858 7.74207 15.0002 7.74207H9.19368ZM9.51627 10.0002V8.38724H14.6776V10.0002H9.51627ZM14.3241 11.6615C14.247 12.1247 14.0274 12.5524 13.6958 12.8849C13.3643 13.2175 12.9374 13.4384 12.4744 13.517C12.4326 13.5241 12.3899 13.5228 12.3486 13.5134C12.3073 13.504 12.2682 13.4865 12.2337 13.4619C12.1992 13.4374 12.1698 13.4063 12.1473 13.3704C12.1247 13.3345 12.1095 13.2946 12.1024 13.2528C12.0954 13.211 12.0966 13.1683 12.106 13.127C12.1155 13.0857 12.133 13.0466 12.1575 13.0121C12.182 12.9776 12.2131 12.9482 12.249 12.9257C12.2849 12.9032 12.3249 12.8879 12.3666 12.8809C12.6973 12.8248 13.0023 12.667 13.2391 12.4295C13.4759 12.192 13.6328 11.8865 13.6879 11.5557C13.7042 11.4734 13.7518 11.4007 13.8208 11.3529C13.8898 11.3052 13.9746 11.2862 14.0573 11.3C14.1401 11.3137 14.2142 11.3592 14.264 11.4266C14.3138 11.4941 14.3353 11.5784 14.3241 11.6615Z" fill="#FAEEE2"/>
</svg>
