<svg width="114" height="25" viewBox="0 0 114 25" fill="none" xmlns="http://www.w3.org/2000/svg">
<path fill-rule="evenodd" clip-rule="evenodd" d="M0.634766 9.57295V19.1459L4.56195 19.1238C8.66874 19.1008 8.86244 19.0911 9.89108 18.8595C12.8435 18.1946 14.3228 16.3078 14.2161 13.3431C14.2021 12.9534 14.1631 12.5093 14.1295 12.3563C13.7368 10.5698 12.815 9.48014 11.1472 8.83105C11.031 8.7858 11.0441 8.77143 11.379 8.57477C12.506 7.91318 13.2435 6.87279 13.4876 5.60017C13.6019 5.00432 13.5658 3.9616 13.4106 3.37344C12.9298 1.55193 11.5931 0.518929 9.20968 0.127025C8.76834 0.0544536 8.12187 0.0394232 4.66496 0.0212551L0.634766 0V9.57295ZM56.1562 9.57695V19.1459L60.0834 19.1237C63.4549 19.1047 64.0902 19.0894 64.5734 19.0152C67.5003 18.5659 69.0627 17.3263 69.614 15.0161C69.7068 14.6272 69.7231 14.4042 69.7215 13.5455C69.7198 12.6124 69.709 12.4942 69.5826 12.0309C69.252 10.8192 68.4964 9.77791 67.5539 9.2352C67.4287 9.16313 67.1512 9.02938 66.9372 8.93798L66.5481 8.77179L66.7215 8.68424C67.6039 8.23854 68.4105 7.35589 68.7672 6.44577C69.1926 5.36044 69.1953 4.01697 68.7745 2.88407C68.2595 1.49737 67.0713 0.597269 65.2737 0.231984C64.3434 0.0429151 63.4958 0.00895752 59.6971 0.00850205L56.1562 0.00804658V9.57695ZM8.57433 2.77992C9.56728 3.04723 10.1209 3.58017 10.3106 4.45133C10.3937 4.83255 10.3836 5.70098 10.2922 6.04587C10.0518 6.9529 9.41416 7.53702 8.37774 7.79972C7.75021 7.95873 7.12196 8.0022 5.43752 8.00316L3.87952 8.00402V5.35558C3.87952 3.8989 3.89688 2.68989 3.91815 2.66888C3.93937 2.64783 4.90703 2.64034 6.06845 2.65223C8.01309 2.67207 8.21128 2.68219 8.57433 2.77992ZM64.104 2.78199C65.3535 3.11792 65.8981 3.84718 65.9063 5.19531C65.91 5.80487 65.8343 6.14556 65.5935 6.60144C65.2583 7.23641 64.6174 7.65574 63.6692 7.86065C63.2469 7.9519 62.953 7.96809 61.3195 7.99005L59.4524 8.01515V5.32269V2.63017L61.577 2.65198C63.5476 2.67222 63.7307 2.68164 64.104 2.78199ZM48.4821 6.00356C46.1053 6.39116 44.3 7.77735 43.4078 9.89993C43.0229 10.8155 42.8644 11.6753 42.8663 12.837C42.8694 14.8336 43.461 16.3924 44.6646 17.5749C45.334 18.2326 46.0674 18.6761 47.0309 19.0056C47.9865 19.3324 48.5561 19.4151 49.8469 19.4143C50.7028 19.4139 51.0998 19.392 51.4693 19.3252C52.4512 19.1475 53.3036 18.8495 53.8931 18.4778L54.1312 18.3277L53.7729 17.0753C53.5758 16.3864 53.4052 15.813 53.3938 15.8008C53.3823 15.7887 53.2865 15.8298 53.1808 15.8922C52.5871 16.2427 51.7096 16.5508 50.9285 16.6831C49.9823 16.8435 48.9662 16.6966 48.0717 16.2701C47.6564 16.0721 47.5147 15.9691 47.1164 15.576C46.7371 15.2015 46.6086 15.0332 46.4355 14.6842C46.1448 14.098 46.0592 13.7535 46.0253 13.0323C45.9217 10.8288 46.9758 9.20463 48.8169 8.73135C49.3538 8.59334 50.5608 8.60529 51.179 8.75478C51.7361 8.8895 52.3658 9.20321 52.7936 9.55909L53.1136 9.82528L53.1715 9.6105C53.2034 9.49239 53.378 8.8566 53.5597 8.19775C53.7414 7.53884 53.89 6.9899 53.89 6.97785C53.89 6.92947 52.9372 6.52517 52.4385 6.36191C51.5169 6.06024 50.9911 5.97552 49.8984 5.95265C49.2085 5.93823 48.7907 5.95321 48.4821 6.00356ZM16.2405 12.6852V19.1377H17.7341H19.2277V16.2024V13.2672L19.4724 13.2677C20.0443 13.2689 20.3693 13.5483 21.6261 15.1195C22.7605 16.5379 24.4553 18.7685 24.6254 19.0673C24.6597 19.1274 24.9842 19.1367 26.6586 19.1256L28.6509 19.1124L27.8442 18.0749C25.3497 14.8671 24.1485 13.3995 23.3819 12.6231L22.8708 12.1055L23.4337 11.5097C24.4311 10.454 27.3124 7.20265 27.942 6.42254L28.0951 6.23276H26.2928H24.4906L24.2191 6.57436C23.6597 7.27806 21.7156 9.61769 21.2657 10.1286C20.3692 11.1467 19.843 11.58 19.4383 11.6333L19.2277 11.6611V8.94694V6.23276H17.7341H16.2405V12.6852ZM28.4985 6.25376C28.4985 6.36829 29.5936 9.21895 30.0943 10.4079C30.999 12.5557 32.4534 15.5235 33.4673 17.2905C33.7389 17.7637 34.0123 18.2496 34.0749 18.3704L34.1889 18.5899L33.8334 19.256C33.277 20.2985 31.7008 23.1728 31.1645 24.1225L30.6788 24.9828L32.3308 24.9962C33.2394 25.0035 34.0082 25 34.0392 24.9883C34.1481 24.9472 36.8047 19.6123 37.9606 17.1134C39.0951 14.6607 41.9596 8.115 42.6062 6.49779L42.7126 6.23139L41.0078 6.24475L39.303 6.25806L38.9029 7.39673C38.1172 9.63272 37.1884 12.043 36.4553 13.748C36.2399 14.249 36.0027 14.8018 35.9282 14.9765C35.8184 15.2339 35.7802 15.2819 35.7271 15.2295C35.6131 15.1173 34.4048 12.7242 33.9698 11.749C33.2989 10.245 31.8463 6.50705 31.8463 6.28468C31.8463 6.25027 31.2826 6.23276 30.1724 6.23276C29.2517 6.23276 28.4985 6.24222 28.4985 6.25376ZM71.7619 12.6852V19.1377H72.1419H72.5219L73.5983 18.1382C75.192 16.6583 76.9253 15.0924 78.921 13.3295L80.6979 11.76L80.7111 15.4488L80.7243 19.1377H82.2176H83.7109V12.6852V6.23276H83.2923H82.8737L82.4326 6.59966C80.9777 7.80969 77.6804 10.6897 75.6505 12.5234L74.7749 13.3144L74.7617 9.77356L74.7484 6.23276H73.2552H71.7619V12.6852ZM88.1188 6.65027C88.1019 6.87988 88.053 7.88762 88.0101 8.88965C87.8593 12.4118 87.6325 14.4269 87.2842 15.339C86.9547 16.2017 86.4959 16.5334 85.5486 16.5938C85.1204 16.621 85.0957 16.6288 85.1191 16.7289C85.1328 16.7872 85.1972 17.3993 85.2623 18.0891C85.3274 18.7789 85.3966 19.3686 85.4161 19.3997C85.4742 19.492 86.699 19.3658 87.2406 19.2118C88.126 18.9599 88.8341 18.492 89.294 17.855C89.9717 16.9161 90.3798 15.6204 90.6115 13.6721C90.6516 13.3338 91.0245 9.02184 91.0245 8.89507C91.0245 8.87816 92.0674 8.86435 93.3421 8.86435H95.6598V14.001V19.1377H97.1792H98.6986V12.6852V6.23276H93.424H88.1495L88.1188 6.65027ZM103.057 6.75149C103.039 7.03676 103.001 7.82816 102.972 8.5101C102.791 12.843 102.536 14.8499 102.058 15.7128C101.74 16.2863 101.299 16.5385 100.516 16.5927L100.089 16.6223L100.09 16.8046C100.092 17.0925 100.334 19.3956 100.367 19.4271C100.414 19.4739 101.686 19.3478 102.046 19.2605C102.602 19.126 103.365 18.7337 103.754 18.3836C104.501 17.71 105.044 16.5748 105.34 15.064C105.496 14.2695 105.586 13.4861 105.753 11.4706C105.839 10.4408 105.923 9.43307 105.941 9.23125L105.973 8.86435H108.31H110.648V14.001V19.1377H112.141H113.635V12.6852V6.23276H108.362H103.089L103.057 6.75149ZM8.43413 10.6555C9.46741 10.8561 10.0755 11.1995 10.5131 11.8293C10.5728 11.9153 10.6851 12.1658 10.7627 12.386C10.8886 12.7436 10.904 12.8596 10.9059 13.4696C10.9076 13.9907 10.8859 14.2249 10.8143 14.4565C10.4858 15.5191 9.76613 16.1231 8.51175 16.3887C8.13191 16.4692 7.81418 16.4808 5.99119 16.4808H3.90528L3.89199 13.5024L3.8787 10.524L5.95215 10.5501C7.53946 10.57 8.1214 10.5948 8.43413 10.6555ZM63.3946 10.5899C64.4643 10.6956 65.1748 10.9495 65.658 11.3985C65.9921 11.709 66.149 11.9578 66.3108 12.4341C66.4134 12.7358 66.4306 12.8882 66.4306 13.4949C66.4306 14.1017 66.4134 14.254 66.3108 14.5557C66.0691 15.2669 65.6447 15.7571 65.0032 16.0659C64.2241 16.441 63.6762 16.5061 61.2951 16.5061H59.4524V13.5202V10.5344H61.1431C62.073 10.5344 63.0862 10.5593 63.3946 10.5899Z" fill="#FFF3E7"/>
</svg>
