<svg width="619" height="74" viewBox="0 0 619 74" fill="none" xmlns="http://www.w3.org/2000/svg">
<path fill-rule="evenodd" clip-rule="evenodd" d="M433.883 0.127684C431.709 0.51103 429.368 1.88816 427.263 4.02136C424.868 6.44855 425.654 6.77522 428.164 4.39604C430.588 2.09833 432.335 1.24348 434.604 1.24348C436.777 1.24348 438.649 3.01183 439.813 6.16321C440.586 8.25941 440.684 9.27602 440.684 15.2155C440.684 18.8955 440.545 22.5802 440.375 23.4039L440.066 24.9015L438.746 23.7408C433.858 19.4386 426.14 22.1732 420.863 30.0778C415.493 38.1206 414.528 50.5872 418.963 54.6257C421.74 57.1552 425.894 57.5008 429.829 55.5302C436.75 52.0643 442.591 39.9378 444.409 25.262C445.037 20.1931 444.93 11.5182 444.2 8.3031C443.547 5.42407 441.825 2.425 440.109 1.17578C438.806 0.227653 435.997 -0.245428 433.883 0.127684ZM18.8333 22.3204C16.8363 23.3177 14.1639 25.7803 12.2589 28.3784C10.4787 30.8063 11.2127 30.8933 13.2147 28.4921C16.68 24.3355 19.1365 22.9615 20.467 24.4351C21.1754 25.2195 21.1499 25.3572 19.3289 30.63C14.7612 43.8535 8.36666 55.085 5.62826 54.6938C4.86796 54.5852 4.79845 54.3707 4.91902 52.511C5.04547 50.5667 4.99088 50.425 3.96315 50.0334C0.634501 48.7649 -1.4787 53.3812 1.25303 55.9532C2.54938 57.1737 5.53715 56.914 7.50543 55.4093C10.5812 53.0581 14.8351 45.5085 18.7799 35.3998C19.9384 32.4306 21.0454 29.9952 21.2398 29.9881C21.4468 29.9802 21.5049 35.4443 21.3804 43.1596L21.1672 56.3445L22.2051 56.3252C23.1127 56.3087 24.2256 54.8985 31.097 45.0555C41.077 30.7599 43.8602 26.928 43.8602 27.4826C43.8602 27.7266 42.6326 31.5313 41.132 35.9366C36.5219 49.4706 35.8453 53.3836 37.7099 55.7191C38.493 56.6999 38.888 56.8608 40.4561 56.8368C42.8706 56.8002 45.5139 55.4849 48.1286 53.0195C50.331 50.9422 52.8011 47.6857 52.174 47.6857C51.9737 47.6857 51.0673 48.6508 50.1593 49.83C47.4351 53.3686 43.4302 55.3625 41.9752 53.9043C41.2824 53.21 41.4006 50.1842 42.2497 46.8632C42.6597 45.2589 44.5152 39.3261 46.3732 33.6783C48.2311 28.0308 49.7509 23.2044 49.7509 22.9533C49.7509 22.664 48.9855 22.4967 47.664 22.4967H45.5768L42.1417 27.3181C40.2519 29.9696 35.8889 36.1244 32.4456 40.9949C29.0026 45.8654 25.983 49.9181 25.7356 50.0012C25.4093 50.1106 25.3531 49.2486 25.531 46.8525C25.6661 45.0377 25.8935 39.3804 26.0372 34.2805C26.3738 22.3251 26.0879 21.316 22.3638 21.316C21.5218 21.316 19.9474 21.7639 18.8333 22.3204ZM69.1062 22.2806C64.5983 23.6924 60.6114 27.5841 57.8342 33.2835C55.6208 37.8258 54.7089 42.1355 54.9237 47.043C55.106 51.2134 56.0155 53.3037 58.5265 55.3255C59.9693 56.4869 60.1971 56.5409 63.6318 56.5346C66.6514 56.5287 67.5095 56.3779 68.9939 55.5923C71.7418 54.1373 73.1724 52.9018 75.1277 50.2952C79.0824 45.0228 80.9073 39.6115 80.9187 33.1233C80.9246 29.6787 80.7793 28.6633 80.0449 27.0229C77.9525 22.3475 74.1522 20.7 69.1062 22.2806ZM132.979 22.2244C127.208 23.8589 122.209 29.8401 119.594 38.2399C118.853 40.6194 118.675 42.0694 118.678 45.7178C118.681 49.8721 118.768 50.4105 119.744 52.2713C121.574 55.7639 123.91 56.9644 128.251 56.6448C133.019 56.2933 137.029 53.5115 140.262 48.3115C145.955 39.1581 146.246 26.612 140.848 23.032C139.024 21.8225 135.628 21.4738 132.979 22.2244ZM154.3 22.9084C152.942 23.6889 151.621 24.9247 150.471 26.4904C148.601 29.0364 148.032 30.7107 149.816 28.4165C155.422 21.2097 156.976 22.4345 154.042 31.7458C151.081 41.1401 151.891 44.5371 157.091 44.5371C160.719 44.5371 164.351 41.947 167.928 36.8092C169.241 34.9243 170.314 33.4945 170.314 33.6314C170.314 33.7688 169.492 36.146 168.488 38.9141C165.339 47.5929 164.459 52.6901 165.656 55.3223C166.507 57.1934 169.584 57.3536 172.787 55.6935C174.408 54.854 177.986 51.4318 179.412 49.3584C180.776 47.3752 180.283 47.0946 178.817 49.02C176.249 52.3945 173.608 54.3726 171.669 54.375C170.026 54.377 169.528 53.7394 169.535 51.6412C169.543 49.0125 170.274 46.309 174.219 34.3115C176.176 28.363 177.776 23.2618 177.776 22.9757C177.776 22.5959 177.222 22.4877 175.721 22.5746L173.666 22.6935L172.055 27.0587C171.169 29.4595 169.871 32.4259 169.172 33.6507C167.531 36.5262 164.38 39.9692 162.242 41.2255C160.077 42.4968 157.502 42.6582 156.702 41.5723C155.997 40.6135 156.129 39.8539 158.183 33.0875C160.091 26.7997 160.524 23.3681 159.534 22.3759C158.54 21.379 156.621 21.5742 154.3 22.9084ZM191.178 22.1334C188.826 23.0769 184.845 27.5286 184.845 29.2151C184.845 29.517 185.311 29.0585 185.881 28.1965C188.179 24.722 190.674 22.8096 191.745 23.7011C193.122 24.8456 192.302 28.3048 186.622 45.3156C184.781 50.8308 183.274 55.5683 183.274 55.8438C183.274 56.1862 183.934 56.3445 185.36 56.3445H187.447L190.216 48.1777L192.985 40.011L199.125 39.9027C206.257 39.7768 205.831 39.4076 204.24 44.3403C203.031 48.0907 202.566 53.3808 203.29 55.1346C204.559 58.2057 210.024 57.0482 214.25 52.8137C216.716 50.342 218.34 48.2238 218.164 47.7074C218.09 47.4889 217.173 48.3832 216.128 49.6946C213.731 52.6987 211.088 54.4521 209.193 54.2943L207.819 54.1798L207.702 51.5145C207.563 48.3281 208.02 46.5829 212.576 32.8939C214.387 27.4523 215.869 22.8868 215.869 22.7482C215.869 22.6101 214.897 22.4967 213.709 22.4967C212.521 22.4967 211.549 22.5636 211.549 22.6459C211.549 23.1532 206.275 38.1348 205.955 38.535C205.671 38.8904 203.874 39.027 199.478 39.027C193.87 39.027 193.408 38.9731 193.587 38.3382C193.693 37.9592 194.421 35.4636 195.203 32.7923C196.956 26.8095 197.079 24.0954 195.662 22.6758C194.637 21.6478 192.909 21.4388 191.178 22.1334ZM229.361 22.2791C227.724 22.9926 225.118 25.386 223.652 27.52C221.793 30.2278 222.625 29.8885 224.873 27.0221C226.792 24.5744 228.446 23.3941 229.254 23.8947C230.045 24.3847 229.471 26.5974 226.199 35.6639C222.873 44.8795 222.783 45.2211 222.762 48.6992C222.743 52.0249 222.818 52.3705 223.848 53.7252C225.311 55.6494 226.307 56.2587 228.745 56.7223C236.379 58.173 243.955 51.8234 244.433 43.5748C244.747 38.1647 242.106 35.4848 236.462 35.4848C234.92 35.4848 233.093 35.6824 232.402 35.924C231.71 36.1653 231.06 36.2779 230.956 36.174C230.853 36.0701 231.403 34.2344 232.18 32.0945C233.94 27.2441 234.431 23.0469 233.332 22.2417C232.417 21.5714 230.952 21.5852 229.361 22.2791ZM254.944 22.3617C253.359 23.1965 251.389 25.0865 249.97 27.135C247.954 30.0424 248.981 29.8181 251.117 26.8843C253.112 24.1431 254.38 23.3008 255.729 23.8195C256.872 24.2592 256.299 26.817 252.352 38.894C248.008 52.1883 247.58 54.4486 249.118 55.9922C250.185 57.0639 252.446 57.1226 254.527 56.1331C257.056 54.9303 262.52 48.8149 262.125 47.6283C262.047 47.3953 261.484 47.9282 260.873 48.8122C259.342 51.026 256.204 53.8984 254.979 54.2062C254.421 54.3467 253.679 54.3518 253.33 54.2176C252.352 53.8417 252.878 51.4251 255.984 42.0151C261.142 26.3908 261.4 25.0384 259.622 22.9206C258.456 21.5313 256.878 21.3427 254.944 22.3617ZM278.013 22.7195C275.919 23.7656 272.389 27.2507 270.952 29.6909C269.838 31.5837 270.308 31.8832 271.526 30.0562C273.755 26.7115 277.355 23.6775 279.094 23.6775C280.891 23.6775 281.452 24.7378 281.452 28.1347C281.452 31.5494 280.052 38.6759 278.601 42.6464C276.524 48.3324 271.924 54.7796 269.513 55.3861C267.097 55.9938 265.313 54.2502 265.374 51.3389C265.396 50.2849 266.466 45.9674 267.109 44.3403C267.61 43.071 265.374 46.1425 264.386 48.0793C263.128 50.5447 262.814 52.7881 263.497 54.425C264.265 56.2673 265.048 56.805 267.005 56.8329C270.299 56.8805 273.442 54.3923 276.015 49.6997C276.738 48.3808 277.417 47.2992 277.525 47.2969C277.633 47.2941 277.722 48.665 277.722 50.3424C277.722 55.4577 279.756 57.5665 283.848 56.692C286.777 56.0662 290.984 52.2701 293.068 48.3745C293.921 46.7797 293.194 47.0631 292.056 48.7689C290.587 50.9701 288.113 53.5772 286.892 54.2101C285.21 55.0815 283.14 54.9378 282.592 53.911C281.861 52.5417 282.402 45.368 283.58 40.8072C285.274 34.2478 289.661 26.1751 292.646 24.1257C294.422 22.9056 296.561 22.9946 297.431 24.3249C298.343 25.7193 298.228 29.2226 297.181 31.9835C296.739 33.1517 296.376 34.262 296.376 34.4505C296.375 35.2982 297.662 33.585 298.923 31.0586C300.781 27.3373 300.859 24.5677 299.155 22.86C296.304 20.003 290.894 23.0434 287.194 29.5811L285.969 31.7458L285.753 28.4004C285.621 26.3455 285.273 24.5551 284.851 23.7589C283.646 21.4864 281.221 21.1176 278.013 22.7195ZM323.669 22.4459C321.95 23.2331 319.201 26.0114 318.176 27.9985C317.085 30.1121 317.808 29.7697 319.349 27.4424C321.761 23.8014 324.635 22.3857 325.182 24.5701C325.572 26.1283 324.371 30.6194 320.135 43.43C317.867 50.2893 316.011 56.0099 316.011 56.1426C316.011 56.2752 317.003 56.3307 318.215 56.2658L320.42 56.1477L322.292 50.7718C325.779 40.7572 330.309 32.6459 335.231 27.605C337.667 25.1105 340.635 23.4622 341.941 23.8778C343.427 24.3501 342.922 26.8965 338.974 38.8334C334.971 50.9371 334.311 54.0653 335.405 55.7399C335.956 56.5826 336.356 56.738 337.973 56.738C340.95 56.738 344.484 54.0625 347.511 49.5159C348.841 47.5189 348.542 47.0332 347.119 48.8783C344.387 52.4225 341.149 54.7646 339.735 54.2203C338.799 53.8606 339.129 52.5311 343.154 40.4699C346.883 29.2978 347.578 25.9401 346.637 23.6625C345.166 20.103 339.555 21.6202 334.682 26.8957C333.27 28.4244 330.935 31.4231 329.492 33.5602C328.05 35.6973 326.799 37.3752 326.713 37.2894C326.628 37.2032 326.992 35.7438 327.523 34.0459C328.987 29.3623 329.529 25.5686 328.973 23.8813C328.226 21.6131 326.506 21.1475 323.669 22.4459ZM360.831 22.1334C359.129 22.8159 356.859 24.907 355.031 27.4743C354.037 28.8695 353.348 30.1341 353.498 30.2848C353.648 30.4352 353.934 30.2663 354.133 29.9094C355.043 28.2807 357.81 25.1361 358.942 24.4441C361.434 22.9214 362.307 23.8691 361.776 27.52C361.44 29.8275 349.232 66.8943 348.005 69.3326C346.952 71.4244 345.778 72.5859 343.894 73.3986C342.604 73.9551 342.965 73.9917 349.785 73.9957L357.05 74L355.447 73.2849C353.169 72.2683 352.71 70.9797 353.466 67.7205C354.046 65.2228 357.378 55.2944 357.768 54.904C357.879 54.7922 358.495 55.0901 359.137 55.5656C361.561 57.3615 366.339 57.3249 370.129 55.4817C373.068 54.0527 377.628 49.2128 379.513 45.5211C382.618 39.4411 383.808 32.725 382.616 28.0068C381.581 23.9101 379.95 22.2436 376.583 21.8442C374.783 21.6305 374.207 21.7588 371.943 22.8757C369.955 23.8569 368.942 24.6878 367.559 26.4726C366.569 27.7494 365.71 28.794 365.649 28.794C365.588 28.794 365.573 27.5396 365.614 26.0066C365.682 23.5051 365.595 23.1422 364.763 22.4644C363.767 21.6537 362.328 21.5325 360.831 22.1334ZM401.034 22.2377C398.015 23.2425 396.21 24.4473 393.84 27.0402C389.072 32.2547 386.445 39.6831 386.768 47.043C386.95 51.2134 387.859 53.3037 390.37 55.3255C391.813 56.4869 392.041 56.5409 395.476 56.5346C399.293 56.5275 400.843 56.0013 403.885 53.6796C405.517 52.4343 408.46 48.5186 409.867 45.7206C413.148 39.1919 413.803 30.2589 411.322 25.8693C409.84 23.2473 407.963 22.041 405.092 21.8662C403.654 21.7784 401.942 21.9351 401.034 22.2377ZM451.757 22.4515C450.061 23.5724 446.225 29.1875 447.156 29.1875C447.371 29.1875 448.168 28.2134 448.928 27.0229C451.113 23.6003 452.837 24.1576 454.263 28.7471C455.153 31.6151 457.177 42.5015 457.783 47.6857C458.024 49.7422 458.387 52.502 458.59 53.8185C458.793 55.135 458.959 57.0273 458.959 58.0231C458.959 59.7497 458.811 59.9922 455.773 63.2085C451.9 67.308 447.772 70.5042 446.341 70.5094C445.619 70.5121 444.992 70.0985 444.259 69.1358C443.439 68.0582 442.932 67.7582 441.931 67.7582C439.973 67.7582 439.145 68.5769 439.145 70.5133C439.145 74.2267 442.97 74.5841 447.828 71.3245C459.984 63.1691 470.299 47.4307 472.534 33.6307C473.225 29.3658 473.252 24.206 472.591 22.8903C471.915 21.5435 470.237 21.3703 469.405 22.5617C468.524 23.8211 468.627 25.1117 469.804 27.6132C471.835 31.9241 471.402 36.908 468.344 44.4403C466.18 49.7705 462.887 55.2456 462.887 53.5131C462.887 51.8077 460.786 36.6384 460.117 33.5169C458.715 26.9678 457.815 24.4193 456.406 23.0072C454.906 21.5041 453.454 21.3305 451.757 22.4515ZM484.879 22.3361C482.58 23.3323 478.303 28.1131 478.685 29.26C478.765 29.5012 479.393 28.8207 480.08 27.7478C482.011 24.7322 484.444 22.8864 485.529 23.6137C487.004 24.6024 486.297 27.7797 481.134 43.3729C478.874 50.2003 477.024 55.9123 477.024 56.0658C477.024 56.2189 477.982 56.3445 479.152 56.3445H481.279L482.494 52.7039C483.163 50.7013 484.567 46.5837 485.616 43.5532L487.522 38.0431L489.703 37.9262C492.95 37.7518 494.538 38.5512 495.1 40.6419C495.629 42.6109 495.388 44.58 494.08 48.9582C493.022 52.4992 492.903 54.0042 493.577 55.2881C494.211 56.4952 494.672 56.7255 496.464 56.7306C498.915 56.7377 501.855 54.684 504.161 51.3539C504.787 50.4491 505.3 49.6186 505.3 49.5088C505.3 49.399 504.1 50.538 502.634 52.0395C499.829 54.913 498.599 55.4085 497.834 53.9747C497.511 53.3702 497.594 52.4968 498.179 50.3341C499.223 46.4759 499.468 44.236 499.043 42.4267C498.617 40.6096 496.998 38.8066 495.211 38.1592C494.496 37.9002 493.911 37.5503 493.911 37.3819C493.911 37.2134 494.691 36.3546 495.644 35.4742C496.84 34.369 498.137 32.4051 499.827 29.1391C502.228 24.4981 503.53 22.9722 504.703 23.4232C505.163 23.6003 505.207 23.8715 504.903 24.6728C504.366 26.0889 504.415 26.6698 505.131 27.3885C505.965 28.2233 507.78 28.1701 508.577 27.287C509.482 26.2849 509.399 24.0033 508.413 22.7466C507.098 21.0712 503.946 21.4805 502.057 23.572C501.679 23.9911 500.383 26.1786 499.179 28.4335C495.425 35.4604 494.12 36.6616 490.236 36.664C488.206 36.6655 487.967 36.5845 488.201 35.9768C489.057 33.7456 490.411 27.492 490.434 25.6607C490.456 23.8046 490.317 23.389 489.414 22.6105C488.21 21.5726 486.832 21.4892 484.879 22.3361ZM518.652 22.3964C517.024 23.1886 513.644 26.5148 512.641 28.3107C511.697 30.0015 512.47 29.9491 513.517 28.2512C514.631 26.4451 517.685 23.6775 518.565 23.6775C520.395 23.6775 520.688 25.7662 519.445 29.9487C519.017 31.388 516.985 37.6353 514.929 43.8314C512.873 50.0271 511.19 55.3869 511.19 55.7411C511.19 56.2709 511.555 56.3645 513.24 56.2665L515.289 56.1477L517.894 48.8665C520.828 40.6619 523.23 35.5706 526.181 31.2912C530.79 24.6106 536.717 21.4364 536.717 25.6497C536.717 26.2487 536.026 28.7507 535.181 31.2101C532.238 39.778 527.292 55.1834 527.292 55.7813C527.292 56.2654 527.73 56.3606 529.522 56.2658L531.752 56.1477L533.64 50.2912C535.849 43.4359 538.457 37.7715 541.654 32.8864C545.487 27.0284 549.913 23.2 552.061 23.8833C553.474 24.3328 552.959 26.7887 548.906 38.9239C544.495 52.13 544.213 53.3277 545.108 55.0618C546.968 58.6682 552.356 56.7432 556.728 50.9095C557.813 49.4612 558.703 48.1431 558.705 47.9809C558.714 47.2634 557.92 47.7955 557.173 49.0066C556.036 50.8497 552.696 53.9 551.479 54.2062C549.667 54.6619 549.153 54.181 549.442 52.3036C549.583 51.3873 551.395 45.5899 553.467 39.4206C557.86 26.3467 558.112 24.7027 556.01 22.8202C554.491 21.4604 552.957 21.3884 550.488 22.5613C547.944 23.7696 543.204 28.8093 540.546 33.1328C539.304 35.1526 538.288 36.5183 538.288 36.1673C538.288 35.8166 538.848 33.8814 539.533 31.8666C540.335 29.5099 540.79 27.3846 540.809 25.9071C540.837 23.8369 540.727 23.5129 539.688 22.6168C537.362 20.6099 533.38 22.1929 528.666 26.9977C527.078 28.6173 525.047 31.2794 523.856 33.3048C522.721 35.2321 521.797 36.6443 521.8 36.4424C521.804 36.2405 522.335 34.0435 522.979 31.5604C524.294 26.4904 524.407 24.9243 523.576 23.3122C522.662 21.5423 521.03 21.2388 518.652 22.3964ZM576.577 22.5439C572.92 23.7983 570.466 25.9279 567.563 30.3683C565.328 33.7877 563.967 37.3574 563.195 41.8257C562.158 47.8211 563.158 52.1922 566.194 54.9414C567.925 56.5082 569.567 56.9203 572.99 56.6448C579.781 56.0985 586.082 48.9975 588.357 39.3246C589.094 36.1897 589.112 30.2545 588.392 27.8549C586.797 22.5451 582.374 20.5564 576.577 22.5439ZM606.816 22.2381C603.015 23.5027 599.961 25.9925 596.865 30.351C595.127 32.7975 593.39 37.5298 592.643 41.8576C591.599 47.8943 592.471 51.6837 595.539 54.4537C597.579 56.2949 599.702 56.8691 603.675 56.6538C610.507 56.2835 615.127 52.1977 615.559 46.1449C615.894 41.4574 613.688 38.7834 609.077 38.2863L606.82 38.0431L609.567 36.8934C613.03 35.4443 616.202 33.3815 617.409 31.7934C617.922 31.1181 618.551 29.7327 618.806 28.7153C619.438 26.1991 618.525 24.2651 616.072 22.9194C613.96 21.7611 609.285 21.4171 606.816 22.2381ZM74.7994 23.1111C76.4614 24.2773 76.9888 25.9441 76.9731 29.9747C76.9409 38.0942 72.2044 50.7171 67.7592 54.5305C65.7466 56.2571 63.9252 56.62 62.0013 55.6777C59.8417 54.6198 59.0999 52.783 59.1199 48.5449C59.1658 38.8424 64.1211 26.5289 69.226 23.4319C71.0176 22.3452 73.5046 22.2019 74.7994 23.1111ZM98.1938 23.4618C98.7998 24.0246 99.2329 24.8499 99.2329 25.4415C99.2329 26.5136 95.4625 36.8033 92.8867 42.7597C90.9027 47.3477 88.5429 51.2338 86.3971 53.4465C84.172 55.7407 83.2793 55.6482 83.4533 53.1415C83.5986 51.0434 82.878 50.0401 81.2384 50.0598C79.5913 50.0795 78.7431 50.9812 78.522 52.9479C78.3515 54.4624 78.4658 54.8528 79.3353 55.7242C81.4614 57.855 85.3391 56.6692 88.2432 52.9991C91.7227 48.6028 94.4434 42.5806 99.7121 27.6132C100.36 25.7733 101.069 24.0466 101.288 23.7758C101.692 23.276 108.287 23.0426 108.755 23.5121C108.88 23.6373 107.247 28.9065 105.126 35.2211C100.994 47.52 100.065 51.6251 100.794 54.3419C101.303 56.2351 102.257 56.8482 104.619 56.8006C107.704 56.7384 112.495 53.2915 115.247 49.1538C116.825 46.7825 116.023 47.0733 114.084 49.5753C111.928 52.3575 109.037 54.3766 107.208 54.3766C104.019 54.3766 104.457 50.9438 109.678 35.0365C111.764 28.6806 113.556 23.2595 113.659 22.9887C113.806 22.6046 112.017 22.4967 105.501 22.4967H97.1547L98.1938 23.4618ZM139.093 23.7951C140.196 24.9007 140.429 25.4706 140.66 27.6325C141.429 34.8401 136.767 49.334 132.212 53.8996C129.023 57.0958 125.38 56.9671 123.679 53.5985C121.127 48.543 124.656 32.9891 129.809 26.5777C132.256 23.5338 133.842 22.4967 136.049 22.4967C137.503 22.4967 138.015 22.7152 139.093 23.7951ZM406.643 23.1111C408.251 24.2395 408.692 25.7182 408.692 29.9822C408.692 38.3363 404.136 50.6423 399.603 54.5305C396.662 57.0533 393.184 56.5885 391.664 53.469C389.837 49.719 391.561 38.5835 395.146 30.9897C396.545 28.0265 399.308 24.5008 401.07 23.4319C402.861 22.3452 405.348 22.2019 406.643 23.1111ZM436.409 23.2429C438.252 24.0821 439.716 25.7528 439.716 27.0162C439.716 27.4956 439.29 29.8185 438.768 32.1784C435.963 44.8583 430.912 54.632 426.474 55.9643C424.489 56.5605 422.394 55.738 421.239 53.9082C420.48 52.7062 420.432 52.1942 420.61 47.2922C420.829 41.2373 421.8 37.2472 424.422 31.6175C426.593 26.9571 428.342 24.724 430.773 23.5098C433.171 22.3125 434.253 22.2614 436.409 23.2429ZM583.011 23.1386C584.44 24.1415 585.021 26.0574 585.021 29.7685C585.021 37.0851 581.083 48.6677 576.949 53.5072C575.373 55.353 572.831 56.5031 571.063 56.1705C567.705 55.5392 566.445 51.065 567.566 43.75C568.949 34.726 573.638 25.1298 577.627 23.1599C579.308 22.3298 581.845 22.3196 583.011 23.1386ZM612.286 22.9489C613.665 23.5787 614.654 26.2983 614.339 28.5984C613.844 32.2157 611.531 35.0932 607.681 36.8808C605.712 37.7951 598.564 39.3497 598.166 38.9507C597.859 38.6429 599.389 34.2419 600.963 30.9039C602.567 27.5026 605.305 24.0372 607.081 23.1599C608.614 22.403 610.888 22.3106 612.286 22.9489ZM375.883 23.9219C378.593 24.9641 378.691 34.591 376.073 42.6342C374.05 48.8527 371.85 52.3866 368.478 54.8378C367.194 55.7706 366.559 55.9505 364.551 55.9493C361.803 55.9477 359.98 55.0697 359.072 53.3092C358.535 52.2678 358.692 51.6353 361.934 41.7797C365.61 30.608 365.929 29.8311 367.842 27.4164C370.257 24.3678 373.442 22.9836 375.883 23.9219ZM236.993 37.4153C239.233 38.5673 240.011 40.229 239.959 43.75C239.835 52.1517 233.336 58.7075 228.866 54.9382C226.345 52.8121 226.431 48.4237 229.15 40.4892C230.073 37.7951 230.342 37.3838 231.379 37.0808C233.361 36.5026 235.463 36.6278 236.993 37.4153ZM608.599 39.6256C611.578 41.1693 612.217 46.6069 609.944 51.0615C607.677 55.5046 603.652 57.2997 600.021 55.4873C597.303 54.1306 596.604 52.6519 596.614 48.2761C596.618 46.3279 596.849 43.7287 597.127 42.5003L597.631 40.2668L600.064 39.6929C603.381 38.9105 607.162 38.8806 608.599 39.6256Z" fill="#FFF3E7"/>
</svg>
