<svg width="702" height="226" viewBox="0 0 702 226" fill="none" xmlns="http://www.w3.org/2000/svg">
<path fill-rule="evenodd" clip-rule="evenodd" d="M0.525804 0.333182C0.525804 0.516197 1.08637 0.877111 1.77093 1.13521C4.93804 2.32758 5.3126 5.70676 5.14755 31.5691C5.03253 49.5631 4.92521 52.4543 4.32232 53.7528C3.48725 55.5514 2.04586 56.9 0.312013 57.5045C-0.681263 57.8504 0.573266 57.9507 5.87059 57.9468C11.1324 57.943 12.3664 57.844 11.2154 57.5177C9.23097 56.9546 8.28259 56.0655 7.19824 53.7528C6.32512 51.8907 6.29433 51.168 6.1699 29.6921C6.09892 17.5149 6.2071 7.3859 6.40978 7.18368C6.61587 6.97806 7.18456 7.8044 7.70065 9.06077C8.92696 12.0449 21.7634 44.8465 22.7695 47.567C25.8178 55.8108 26.9894 58.2323 27.9296 58.2323C28.9169 58.2323 28.9101 58.2485 37.6559 35.4086C46.6325 11.966 48.6691 6.82576 48.98 6.82576C49.5538 6.82576 49.0775 51.9807 48.4844 53.7955C47.8742 55.6628 46.8549 56.635 44.702 57.4008C43.235 57.923 43.9982 57.981 52.2634 57.9771C61.3628 57.9724 61.4372 57.9652 59.5763 57.2493C58.5424 56.8513 57.3405 56.0459 56.9056 55.4593C55.3873 53.4111 55.2094 50.2239 55.342 27.4114C55.4647 6.31553 55.5083 5.25754 56.3254 3.65093C56.8291 2.66034 57.7476 1.69577 58.5604 1.30457C59.3194 0.938968 59.9449 0.489748 59.95 0.306305C59.9556 0.122863 57.7326 0.0268758 55.0106 0.0930003L50.0609 0.213305L45.7864 11.3052C43.4355 17.4057 41.1582 23.3569 40.7259 24.5301C40.2932 25.7032 38.5037 30.4066 36.7485 34.982C34.9933 39.5574 32.9131 44.9809 32.1259 47.0337C31.3387 49.0866 30.5648 50.7666 30.4058 50.7666C30.124 50.7666 29.3701 48.8938 24.91 37.1151C23.7102 33.9475 22.4527 30.6839 22.1153 29.8627C21.778 29.0415 19.9449 24.2421 18.0422 19.1974C16.1394 14.1528 14.1277 8.87349 13.5718 7.46567C13.0159 6.05786 12.1484 3.80195 11.6438 2.45301L10.7262 0H5.62602C2.82107 0 0.525804 0.149739 0.525804 0.333182ZM76.1054 21.1176C71.2528 22.339 68.5115 24.6286 68.5115 27.46C68.5115 29.0948 70.0072 30.4352 71.4349 30.0798C73.271 29.6225 74.0701 28.6247 74.0701 26.789C74.0701 23.0421 76.5715 21.0997 80.9876 21.4188C83.0224 21.5656 83.7404 21.8258 84.6716 22.7549C85.7286 23.8087 85.8415 24.2421 85.9788 27.7612C86.1742 32.7649 85.8629 34.244 84.2222 36.1083C82.2459 38.3539 80.2872 39.4358 75.1643 41.1107C68.2259 43.3794 66.3736 45.2343 66.3736 49.9134C66.3736 52.5187 67.1313 54.4265 68.7796 55.9699C72.7724 59.7092 80.4882 59.3615 83.7399 55.2955C84.4185 54.4469 85.118 53.7528 85.2942 53.7528C85.4708 53.7528 85.6149 54.4248 85.6149 55.246C85.6149 57.0441 86.8339 58.4208 88.5011 58.5053C90.4962 58.6064 93.0099 58.373 93.9305 58.001C94.7459 57.6717 94.7322 57.644 93.739 57.6128C90.8327 57.5215 90.6159 56.1235 90.9558 39.6747C91.2261 26.591 91.2102 26.1998 90.3521 24.8462C88.1936 21.4401 81.6388 19.7247 76.1054 21.1176ZM139.21 20.9214C135.983 21.5583 133.084 23.0706 131.979 24.6939C130.609 26.7054 130.602 28.7697 131.962 29.6592C134.042 31.0184 136.497 29.3333 136.497 26.5471C136.497 23.048 139.114 21.1082 143.415 21.4188C145.45 21.5656 146.168 21.8258 147.099 22.7549C148.156 23.8087 148.269 24.2421 148.406 27.7612C148.601 32.7649 148.29 34.244 146.649 36.1083C144.674 38.3531 142.713 39.4358 137.82 40.9836C130.869 43.1819 128.801 45.2296 128.801 49.9134C128.801 52.5187 129.558 54.4265 131.207 55.9699C135.2 59.7092 142.915 59.3615 146.167 55.2955C146.846 54.4469 147.545 53.7528 147.721 53.7528C147.898 53.7528 148.042 54.4248 148.042 55.246C148.042 57.0441 149.261 58.4208 150.928 58.5053C152.923 58.6064 155.437 58.373 156.358 58.001C157.15 57.6806 157.124 57.644 156.09 57.6192C153.214 57.5514 152.964 55.9222 153.313 39.5356C153.537 29.0334 153.478 26.5573 152.975 25.3568C152.146 23.3761 149.123 21.5314 145.742 20.9444C142.728 20.4205 141.766 20.4171 139.21 20.9214ZM171.288 20.8578C170.55 21.0472 169.028 21.7153 167.904 22.342L165.861 23.4815L164.941 22.6193C164.435 22.1449 163.903 21.7571 163.759 21.7571C163.479 21.7571 163.152 24.4285 162.859 29.1161C162.759 30.7001 162.806 31.9957 162.962 31.9957C163.117 31.9957 163.773 30.7867 164.418 29.309C166.816 23.8185 169.834 21.5301 174.26 21.8497C176.537 22.0139 176.967 22.2004 178.223 23.5676C181.86 27.5279 180.938 35.1872 176.575 37.2533C175.764 37.6372 173.678 38.0933 171.94 38.2669L168.78 38.5822L171.928 38.8757C175.983 39.2537 178.468 40.2199 180.073 42.0433C181.726 43.9216 182.411 46.4902 182.088 49.5985C181.497 55.2916 177.917 58.4848 172.802 57.8803C169.312 57.4682 168.305 56.3518 166.78 51.2056C166.03 48.6783 164.43 47.6779 162.687 48.6472C161.757 49.1642 161.484 49.6574 161.384 51.0072C161.204 53.4214 162.621 55.3386 165.77 56.9447C168.215 58.1913 168.478 58.2318 174.096 58.225C179.305 58.2186 180.104 58.1162 181.923 57.2208C184.629 55.8885 186.354 53.8313 187.201 50.924C188.019 48.1173 187.78 45.8345 186.417 43.4148C185.41 41.6269 182.495 39.4636 180.505 39.0276C178.866 38.6683 178.927 38.2584 180.715 37.6129C183.464 36.6215 186.092 32.7287 186.092 29.6494C186.092 26.3858 183.872 23.2289 180.585 21.8181C178.273 20.8254 173.378 20.3199 171.288 20.8578ZM346.227 21.072C341.782 22.252 339.748 23.6065 338.727 26.065C337.614 28.7458 339.637 30.9075 342.249 29.8281C343.461 29.3273 343.623 28.9664 344.048 25.8312C344.197 24.7365 344.724 23.6999 345.552 22.8735C346.62 21.8083 347.248 21.5707 349.414 21.4145C354.638 21.0374 355.848 22.5271 355.848 29.3371C355.848 33.1412 355.743 33.6919 354.725 35.258C353.13 37.7132 350.114 39.5045 344.692 41.2173C340.842 42.4336 339.687 43.0006 338.361 44.3231C336.033 46.6455 335.488 50.2999 336.987 53.5395C338.553 56.9243 341.525 58.5637 346.056 58.5415C349.415 58.5253 351.795 57.4831 353.583 55.2468C354.993 53.4845 355.42 53.3787 355.42 54.7916C355.42 56.4904 356.161 57.9247 357.213 58.2634C358.493 58.6759 362.121 58.5633 363.758 58.0599L365.041 57.6657L363.675 57.629C361.008 57.5574 360.979 57.3709 360.979 40.9226C360.979 26.3163 360.968 26.1328 360.016 24.6999C357.927 21.5515 351.144 19.767 346.227 21.072ZM453.656 21.0579C451.352 21.9184 449.22 23.6658 447.421 26.1682L445.854 28.3482L445.73 24.8394L445.605 21.3305H441.276C436.96 21.3305 436.632 21.4521 438.47 22.3663C440.721 23.4857 440.723 23.5045 440.723 49.0601C440.723 70.7481 440.66 72.8509 439.979 74.0932C439.57 74.8393 438.849 75.5718 438.376 75.722C436.198 76.4114 437.937 76.7898 443.288 76.7898C446.851 76.7898 449.061 76.6264 449.061 76.3632C449.061 76.1285 448.805 75.9366 448.494 75.9366C448.182 75.9366 447.461 75.4413 446.891 74.8359C445.868 73.7502 445.852 73.6068 445.701 64.1707C445.548 54.6713 445.677 53.7486 446.943 55.2707C448.943 57.6747 454.499 59.097 459.086 58.379C467.268 57.0979 472.167 49.9304 472.143 39.2763C472.124 30.9156 469.045 24.5062 463.825 21.9576C460.998 20.578 456.101 20.1445 453.656 21.0579ZM488.118 20.9214C484.891 21.5583 481.992 23.0706 480.887 24.6939C479.517 26.7054 479.51 28.7697 480.87 29.6592C482.95 31.0184 485.405 29.3333 485.405 26.5471C485.405 23.048 488.022 21.1082 492.323 21.4188C494.358 21.5656 495.075 21.8258 496.007 22.7549C497.064 23.8087 497.177 24.2421 497.314 27.7612C497.509 32.7649 497.198 34.244 495.557 36.1083C493.581 38.3531 491.621 39.4358 486.728 40.9836C479.776 43.1819 477.709 45.2296 477.709 49.9134C477.709 52.5187 478.466 54.4265 480.115 55.9699C484.107 59.7092 491.823 59.3615 495.075 55.2955C495.754 54.4469 496.453 53.7528 496.629 53.7528C496.805 53.7528 496.95 54.4248 496.95 55.246C496.95 57.0441 498.169 58.4208 499.836 58.5053C501.831 58.6064 504.345 58.373 505.266 58.001C506.058 57.6806 506.032 57.644 504.997 57.6192C502.122 57.5514 501.871 55.9222 502.221 39.5356C502.445 29.0334 502.386 26.5573 501.883 25.3568C501.054 23.3761 498.03 21.5314 494.65 20.9444C491.635 20.4205 490.673 20.4171 488.118 20.9214ZM100.153 21.5016C100.153 21.5958 100.815 22.063 101.625 22.5395C103.913 23.8867 104.062 25.0621 103.916 40.6546C103.771 56.0984 103.851 55.7033 100.593 57.138L98.6562 57.9912L106.353 57.9725C113.051 57.9562 113.855 57.8846 112.553 57.4183C111.721 57.1209 110.622 56.2442 110.079 55.4452L109.101 54.0075L109.223 39.1961L109.346 24.3846L110.382 23.2839C110.953 22.679 111.722 22.1807 112.093 22.1773C112.463 22.1735 113.055 21.9845 113.408 21.7571C113.837 21.4807 111.745 21.3416 107.101 21.3369C103.28 21.3335 100.153 21.4077 100.153 21.5016ZM117.256 22.0126C118.079 22.3497 119.041 22.7835 119.394 22.9764C120.542 23.6052 123.205 27.4558 124.157 29.8606C124.668 31.1523 125.272 32.401 125.501 32.6357C125.902 33.0482 125.719 28.9864 125.094 23.5702L124.835 21.3305L120.297 21.3655C115.928 21.3988 115.815 21.4231 117.256 22.0126ZM193.366 21.5016C193.366 21.5958 194.029 22.063 194.838 22.5395C197.123 23.8846 197.276 25.0778 197.129 40.4422C196.983 55.7724 196.99 55.7366 193.846 57.1209L191.869 57.9912L199.566 57.9725C205.97 57.9571 207.031 57.8701 205.884 57.4533C204.054 56.7886 202.851 55.5318 202.535 53.9534C202.309 52.8245 202.773 51.973 206.266 47.1101C216.599 32.724 219.69 28.6528 220.023 28.9856C220.6 29.5615 220.117 53.3032 219.495 54.8834C219.112 55.8573 218.416 56.4695 216.963 57.109L214.959 57.9912L222.655 57.9955L230.352 58.0002L228.591 57.2024C225.348 55.7332 225.435 56.2097 225.435 39.8134C225.435 29.6929 225.586 24.8786 225.928 24.1303C226.199 23.5365 226.969 22.8087 227.638 22.5131C228.308 22.2174 228.855 21.8305 228.855 21.653C228.855 21.4755 226.065 21.3305 222.655 21.3305C219.245 21.3305 216.455 21.4077 216.455 21.5016C216.455 21.5958 217.118 22.0626 217.927 22.5391C219.026 23.1858 219.473 23.7984 219.69 24.955C219.939 26.2787 219.775 26.7962 218.564 28.5035C212.724 36.7362 203.069 49.9437 202.744 50.1446C202.153 50.5089 202.224 26.0697 202.819 24.3675C203.087 23.5996 203.83 22.734 204.529 22.3731C205.209 22.0225 205.766 21.6441 205.766 21.5327C205.766 21.4214 202.976 21.3305 199.566 21.3305C196.156 21.3305 193.366 21.4077 193.366 21.5016ZM235.697 21.5327C235.697 21.6441 236.289 22.0408 237.013 22.4145C239.403 23.6478 239.545 24.5962 239.542 39.3411C239.541 47.2488 239.359 53.3361 239.096 54.281C238.655 55.8658 237.939 56.4942 235.483 57.4533C234.424 57.8666 235.545 57.9579 241.897 57.9771L249.593 58.0002L247.76 57.17C245.022 55.9303 244.676 54.7392 244.676 46.564C244.676 39.8833 244.691 39.7703 245.638 39.5169C246.167 39.3757 249.882 39.2571 253.894 39.2541C259.258 39.2498 261.392 39.3966 261.958 39.8095C262.656 40.3189 262.712 41.0006 262.559 47.1685C262.424 52.5788 262.238 54.249 261.646 55.3526C261.237 56.115 260.859 56.7421 260.806 56.7455C260.753 56.7489 259.941 57.0288 259 57.3667C257.401 57.9413 257.806 57.9814 265.2 57.9814C272.476 57.9814 272.976 57.934 271.439 57.3871C270.519 57.0604 269.365 56.3919 268.873 55.9013C268.005 55.0352 267.976 54.5775 267.856 39.8594L267.734 24.7088L268.942 23.5531C269.607 22.9171 270.528 22.1684 270.989 21.8889C271.661 21.4815 270.512 21.3808 265.2 21.3808C259.893 21.3808 258.738 21.4819 259.402 21.8889C262.335 23.6841 262.78 25.3411 262.553 33.6152L262.421 38.4341H253.655H244.89L244.76 32.9752C244.566 24.8236 244.806 23.8441 247.455 21.9644C248.211 21.4286 247.574 21.3561 242.003 21.3441C238.535 21.3365 235.697 21.4214 235.697 21.5327ZM294.455 21.7016C294.581 21.9056 295.265 22.3125 295.975 22.6056C298.05 23.4631 298.19 24.6837 298.043 40.6231C297.893 56.8274 298.062 56.0331 294.489 57.3355C292.882 57.9212 293.258 57.9588 300.689 57.9554C308.27 57.9515 308.523 57.9247 306.773 57.3069C303.98 56.3206 303.655 55.3334 303.371 46.9476L303.129 39.807L304.154 39.5335C305.678 39.1265 320.053 39.2033 320.715 39.6222C321.165 39.9064 321.255 41.5667 321.143 47.4433C320.983 55.7481 320.937 55.894 318.006 57.2242L316.296 58.0002L323.993 58.0053L331.689 58.0104L329.509 56.9976C328.31 56.4409 327.162 55.6269 326.957 55.1888C326.496 54.2025 326.169 30.6592 326.564 26.9234C326.855 24.1756 327.441 23.1961 329.576 21.8889C330.243 21.4807 329.166 21.3757 324.099 21.3557C320.631 21.3416 317.793 21.4755 317.793 21.653C317.793 21.8305 318.366 22.2289 319.068 22.5387C320.863 23.3313 321.26 25.2459 321.118 32.4249L320.999 38.4346L312.555 38.4243C307.91 38.4188 303.918 38.4098 303.682 38.4047C303.185 38.3932 303.15 31.6481 303.623 26.928C303.945 23.7216 304.123 23.4119 306.518 21.8889C307.156 21.4824 306.005 21.3757 300.771 21.3557C297.162 21.3416 294.328 21.4969 294.455 21.7016ZM368.534 22.717C368.404 23.4793 368.182 26.2152 368.042 28.7962L367.787 33.4889L369.057 30.6361C370.999 26.2706 373.113 23.4064 375.193 22.3198L377.013 21.3689L372.891 21.3497L368.77 21.3305L368.534 22.717ZM378.677 21.9687C379.122 22.3044 379.658 22.6368 379.868 22.7067C380.079 22.7767 380.524 23.5996 380.858 24.5352C381.333 25.8679 381.469 29.2415 381.482 40.1013C381.502 55.9917 381.486 56.0719 378.01 57.298C376.216 57.9311 376.399 57.9528 383.838 57.9852L391.518 58.0189L389.638 57.0591C386.66 55.5391 386.576 55.0182 386.722 38.8215C386.859 23.6589 386.921 23.2622 389.348 22.0549C390.634 21.4158 390.402 21.3842 384.282 21.3715C378.626 21.3591 377.964 21.4299 378.677 21.9687ZM391.551 21.7571C391.696 21.9917 392.179 22.1837 392.624 22.1837C394.346 22.1837 396.854 25.7412 399.84 32.4224C400.21 33.25 400.264 32.3904 400.08 28.5829C399.95 25.8846 399.742 23.1491 399.618 22.5037L399.393 21.3305H395.34C392.746 21.3305 391.382 21.4841 391.551 21.7571ZM405.09 22.2925C406.886 23.8018 406.916 23.8761 414.462 44.8482C416.794 51.3301 418.702 56.9447 418.702 57.3249C418.702 58.5889 413.936 69.9235 412.672 71.6636C411.029 73.9264 409.511 73.9899 407.4 71.8838C405.731 70.2187 404.251 69.97 403.162 71.1709C402.136 72.3014 402.284 74.0996 403.504 75.3158C404.354 76.1648 404.982 76.3627 406.818 76.3615C410.818 76.3589 412.891 74.292 415.757 67.4504C418.18 61.666 422.96 49.1152 427.247 37.281C431.865 24.5292 432.012 24.1871 433.586 22.5037L434.683 21.3305L431.289 21.3399C427.99 21.3493 427.922 21.3702 428.849 22.0864C430.993 23.7434 430.51 26.3312 425.574 39.6406C421.261 51.2725 421.713 50.7546 420.027 45.9915C415.64 33.6015 413.144 25.8317 413.144 24.5706C413.144 23.7844 413.432 22.9026 413.785 22.6103C414.138 22.3181 414.426 21.9107 414.426 21.7051C414.426 21.499 412.069 21.3313 409.189 21.3326L403.951 21.3348L405.09 22.2925ZM516.772 21.8889C520.016 23.9631 520.2 24.5872 519.616 31.5056C519.221 36.1714 519.015 38.083 517.887 47.4813C517.191 53.2772 516.402 54.3057 514.053 52.473C512.49 51.2529 510.793 51.3941 509.317 52.8668C508.629 53.5528 508.067 54.502 508.067 54.9759C508.067 56.3441 509.822 58.0207 511.538 58.2933C513.995 58.6832 515.964 57.5049 517.237 54.8821C518.147 53.0063 518.489 50.9765 519.586 40.9546C521.407 24.3087 521.612 23.4657 524.05 22.618C525.689 22.0476 528.551 22.0655 530.251 22.6564C532.896 23.5766 533.064 24.4332 533.222 37.8535C533.366 50.0712 532.999 55.0839 531.878 56.2029C531.55 56.5292 530.532 57.0633 529.616 57.3888C528.088 57.9323 528.608 57.9801 535.86 57.9635C540.299 57.9537 543.29 57.8001 542.677 57.6145C540.718 57.0215 539.729 56.3104 539.055 55.0105C538.488 53.9162 538.411 51.6352 538.517 39.0591L538.639 24.3846L539.676 23.2839C540.246 22.679 540.956 22.1837 541.254 22.1837C541.552 22.1837 541.915 21.9917 542.06 21.7571C542.234 21.476 537.83 21.339 529.151 21.3557C518.792 21.3753 516.147 21.4892 516.772 21.8889ZM549.627 22.2648C550.497 22.7677 551.418 23.6845 551.675 24.3023C551.989 25.0595 552.1 30.2394 552.018 40.2174C551.898 54.5719 551.868 55.0365 551 55.9017C550.509 56.3919 549.354 57.0604 548.435 57.3871C546.911 57.9289 547.583 57.9831 556.042 58.0002C565.564 58.0194 568.666 57.6725 571.349 56.289C579.341 52.1676 578.527 40.9972 570.028 38.1641C568.587 37.6842 565.78 37.3006 562.584 37.1475L557.453 36.9018L557.326 34.0076C557.256 32.4155 557.383 29.4467 557.607 27.4097C558.024 23.6265 558.151 23.3846 560.502 21.8889C561.14 21.4828 559.968 21.3774 554.674 21.3655L548.046 21.3501L549.627 22.2648ZM580.756 21.5327C580.756 21.6441 581.349 22.0408 582.073 22.4145C584.463 23.6478 584.605 24.5962 584.602 39.3411C584.601 47.2488 584.419 53.3361 584.156 54.281C583.715 55.8658 582.999 56.4942 580.542 57.4533C579.484 57.8666 580.605 57.9579 586.956 57.9771L594.653 58.0002L592.87 57.1926C590.176 55.9721 589.987 55.3501 589.81 47.0943L589.653 39.7959L590.657 39.5275C591.946 39.1833 606.125 39.1653 607.018 39.5071C607.595 39.728 607.689 40.7092 607.661 46.2262C607.62 54.4286 607.252 55.7797 604.714 57.0591L602.809 58.0189L610.49 57.9891C617.74 57.9605 618.074 57.9238 616.459 57.3355C612.881 56.0309 613.054 56.8616 612.916 40.3722C612.839 31.1357 612.955 25.312 613.23 24.5885C613.471 23.9584 614.392 23.0152 615.277 22.493L616.887 21.5438L613.573 21.4192C611.75 21.3505 608.769 21.351 606.946 21.4201C603.957 21.5336 603.745 21.5963 604.786 22.0591C607.162 23.1163 607.48 24.2515 607.48 31.6732V38.4286L598.715 38.4316L589.949 38.4341L589.819 33.1885C589.639 25.9131 589.907 24.4452 591.731 22.7293L593.217 21.3305H586.987C583.56 21.3305 580.756 21.4214 580.756 21.5327ZM623.683 21.8889C624.129 22.1684 624.995 22.8121 625.607 23.3194L626.721 24.2417L626.857 38.464C626.948 47.9633 626.836 53.2153 626.521 54.2793C626.055 55.8556 625.363 56.4614 622.873 57.4742C621.822 57.9021 623.478 57.975 632.066 57.8782C641.742 57.769 642.727 57.687 644.961 56.8074C649.868 54.874 652.514 50.0793 651.321 45.2829C649.911 39.612 645.243 37.1151 636.053 37.1151H631.959L632.147 31.0359C632.353 24.4012 632.63 23.4618 634.766 22.1624L636.128 21.3335L629.501 21.3574C624.198 21.3761 623.035 21.4824 623.683 21.8889ZM654.886 21.8889C657.279 23.4111 657.373 23.5992 657.808 27.7493C658.387 33.2696 658 53.5984 657.288 55.1189C656.813 56.1308 655.63 56.9315 653.445 57.7203C653.093 57.8475 656.364 57.9584 660.714 57.9665C667.98 57.9801 668.489 57.9332 666.953 57.3871C666.034 57.0604 664.879 56.3919 664.388 55.9013C663.519 55.0357 663.49 54.5766 663.371 39.9277L663.249 24.8453L664.371 23.5147C664.989 22.7827 665.754 22.1837 666.072 22.1837C666.39 22.1837 666.769 21.9917 666.914 21.7571C667.086 21.4794 664.894 21.3395 660.633 21.3557C655.399 21.3757 654.247 21.4824 654.886 21.8889ZM671.996 22.6811C672.899 23.4239 674.445 25.2958 675.43 26.8406C678.58 31.7769 683.804 40.4456 683.804 40.7361C683.804 40.8906 681.989 43.8346 679.77 47.2782C675.505 53.9005 673.418 56.2882 670.976 57.3406C669.54 57.9596 669.703 57.9857 675.038 57.9852C680.389 57.9848 680.549 57.9592 679.314 57.3001C676.157 55.6141 676.592 53.6308 681.929 45.3764C683.234 43.3581 684.462 41.8739 684.659 42.0774C685.336 42.7804 690.769 51.8369 691.379 53.2802C692.212 55.2528 691.772 56.6619 690.096 57.3893C688.848 57.9306 689.372 57.984 695.776 57.9673C702.067 57.9511 702.689 57.8871 701.519 57.3743C700.797 57.0582 699.544 56.0659 698.733 55.1696C697.081 53.3399 687.652 37.9431 687.652 37.0732C687.652 36.4602 691.407 30.3456 694.375 26.126C695.566 24.4315 696.868 23.1427 697.938 22.598C698.865 22.1261 699.624 21.6475 699.624 21.5353C699.624 21.4226 697.763 21.3305 695.488 21.3305H691.351L692.281 22.3177C693.35 23.4529 693.464 25.0194 692.624 27.024C691.903 28.7475 687.257 35.8352 686.85 35.8352C686.687 35.8352 686.197 35.2111 685.76 34.4487C685.323 33.6864 683.935 31.3179 682.675 29.1857C680.152 24.9174 679.928 23.7886 681.313 22.3177L682.243 21.3305H676.298H670.354L671.996 22.6811ZM460.489 22.6573C465.148 24.9076 467.665 35.5383 465.983 45.8606C464.541 54.7029 460.773 58.6094 454.408 57.8594C451.212 57.4827 449.151 55.8513 447.35 52.2704L445.854 49.2952V40.112C445.854 31.4181 445.906 30.8157 446.841 28.7962C449.583 22.877 455.465 20.2307 460.489 22.6573ZM84.7884 52.4167C83.0921 55.7344 79.7112 57.5655 76.7498 56.7698C72.9477 55.7485 71.0792 51.5016 72.3786 46.8337C73.0683 44.3563 74.5255 43.0036 79.1836 40.516C81.5584 39.2481 83.9289 37.7563 84.4514 37.2008L85.4011 36.1915L85.5182 43.4762C85.6234 50.0328 85.5503 50.9266 84.7884 52.4167ZM147.216 52.4167C144.172 58.3692 136.44 58.4345 134.793 52.5217C133.871 49.2095 134.577 45.7671 136.625 43.5919C137.143 43.0415 139.204 41.7476 141.205 40.7156C143.207 39.6841 145.516 38.281 146.336 37.5971L147.828 36.354L147.945 43.5577C148.051 50.0332 147.977 50.9283 147.216 52.4167ZM355.42 43.8679V51.4735L354.129 53.4171C351.455 57.4452 346.46 58.1021 343.58 54.8049C341.213 52.0942 341.243 46.8861 343.643 44.0406C344.208 43.3704 346.614 41.7843 348.989 40.516C351.363 39.2481 353.719 37.772 354.224 37.2362C354.729 36.7004 355.204 36.2618 355.281 36.2618C355.357 36.2618 355.42 39.6845 355.42 43.8679ZM496.123 52.4167C493.08 58.3692 485.348 58.4345 483.701 52.5217C482.779 49.2095 483.485 45.7671 485.533 43.5919C486.05 43.0415 488.112 41.7476 490.113 40.7156C492.115 39.6841 494.424 38.281 495.244 37.5971L496.736 36.354L496.853 43.5577C496.959 50.0332 496.885 50.9283 496.123 52.4167ZM567.501 38.801C569.451 39.8112 570.503 41.0941 571.143 43.2467C572.99 49.4488 570.68 55.3919 565.909 56.7135C562.584 57.635 559.085 56.8799 558.091 55.0258C557.534 53.9875 556.935 39.8001 557.398 38.598C557.65 37.9431 558.189 37.8796 562.058 38.0523C564.464 38.1598 566.913 38.4968 567.501 38.801ZM642.632 38.964C643.387 39.3573 644.535 40.5813 645.182 41.6836C646.219 43.4477 646.359 44.1247 646.359 47.3341C646.359 50.4091 646.194 51.2781 645.306 52.883C643.532 56.0877 639.949 57.6956 636.162 56.987C632.622 56.324 632.091 54.7468 632.077 44.8461L632.066 37.8586L636.663 38.0536C639.815 38.1867 641.691 38.473 642.632 38.964ZM476.924 147.072C475.745 149.826 474.777 150.151 461.962 152.098C456.278 152.962 451.542 156.122 449.278 160.561C446.742 165.534 445.342 174.149 445.342 184.777C445.342 194.258 446.556 198.127 451.004 202.819C458.268 210.482 470.59 209.183 476.39 200.142C478.635 196.643 479.548 193.352 479.548 188.763C479.548 184.086 478.798 181.156 476.719 177.723C474.868 174.666 472.848 172.897 469.307 171.23C466.829 170.063 466.064 169.911 462.659 169.906C459.222 169.901 458.506 170.045 455.967 171.245C454.403 171.984 452.319 173.392 451.336 174.373C449.696 176.009 447.053 180.685 447.053 181.953C447.052 182.246 446.831 182.486 446.56 182.486C446.001 182.486 446.313 175.296 447.078 170.541C447.91 165.372 450.48 161.213 453.944 159.432C455.65 158.554 462.327 157.152 468.077 156.464C475.23 155.608 478.274 153.222 478.259 148.485C478.25 145.617 477.766 145.105 476.924 147.072ZM320.027 150.031C318.609 151.445 318.457 152.74 319.435 155.074C320.328 157.208 321.182 158.068 323.694 159.364C325.473 160.282 326.56 160.497 330.159 160.645C335.915 160.88 338.659 160.111 341.232 157.545C344.762 154.023 344.258 149.449 340.281 148.917C338.773 148.715 338.348 148.843 337.409 149.779C336.116 151.069 335.913 153.577 336.977 155.093C338.033 156.597 337.604 158.208 335.88 159.215C333.645 160.52 328.562 160.456 326.367 159.094C325.134 158.329 324.763 157.824 324.763 156.907C324.763 156.251 325.052 155.475 325.405 155.183C325.812 154.846 326.046 153.903 326.046 152.602C326.046 150.895 325.857 150.404 324.919 149.668C323.303 148.399 321.53 148.531 320.027 150.031ZM138.551 170.226C135.146 171.632 132.524 173.876 131.394 176.352C130.569 178.16 130.213 177.437 130.213 173.954V170.541H126.151C122.08 170.541 121.255 170.826 123.049 171.613C125.285 172.594 125.296 172.72 125.296 198.27C125.296 220.435 125.246 222.039 124.511 223.383C124.079 224.173 123.357 224.915 122.907 225.033C120.681 225.613 122.66 226 127.861 226C131.424 226 133.634 225.837 133.634 225.573C133.634 225.339 133.359 225.147 133.023 225.147C132.687 225.147 132.014 224.641 131.527 224.023C130.69 222.961 130.64 222.364 130.64 213.322V203.745L132.244 204.998C134.593 206.835 135.413 207.182 138.41 207.605C147.127 208.836 153.993 204.012 156.077 195.191C156.876 191.81 156.889 185.685 156.106 181.998C154.523 174.546 149.891 170.27 142.975 169.876C141.039 169.765 139.341 169.9 138.551 170.226ZM287.4 170.137C280.499 171.857 275.315 177.874 274.209 185.446C272.228 199.008 282.286 209.992 294.382 207.476C298.116 206.699 300.63 205.248 303.308 202.325C308.9 196.22 310.076 187.015 306.278 179.073C304.828 176.041 300.646 172.137 297.612 170.983C294.732 169.888 289.98 169.494 287.4 170.137ZM387.886 170.314C385.82 171.049 383.542 172.856 381.755 175.179C380.999 176.161 380.245 177.007 380.079 177.059C379.913 177.111 379.823 175.76 379.878 174.058C379.954 171.732 379.831 170.906 379.382 170.734C379.054 170.608 377.068 170.561 374.971 170.63L371.156 170.754L372.529 171.503C373.471 172.017 374.05 172.754 374.371 173.85C374.693 174.947 374.798 182.852 374.708 199.124C374.569 224.293 374.566 224.328 372.547 224.967C370.478 225.622 372.317 226 377.57 226C380.745 226 383.342 225.85 383.342 225.667C383.342 225.484 382.78 225.122 382.093 224.864C381.166 224.515 380.726 223.968 380.385 222.744C379.844 220.798 379.752 203.816 380.283 203.816C380.482 203.816 381.011 204.221 381.459 204.715C383.538 207.008 388.788 208.331 393.074 207.641C401.856 206.228 407.028 198.029 406.27 186.723C405.974 182.321 404.779 178.244 402.997 175.559C399.942 170.958 392.925 168.522 387.886 170.314ZM422.328 170.12C419.373 170.738 416.053 172.454 415.026 173.895C412.93 176.831 414.86 180.423 417.781 179.026C418.852 178.514 419.082 178.097 419.361 176.161C419.774 173.299 420.258 172.408 421.959 171.373C423.805 170.249 427.541 170.25 429.388 171.373C431.075 172.399 431.657 174.274 431.647 178.646C431.633 185.046 429.165 187.648 420.542 190.353C413.625 192.523 411.99 194.195 411.99 199.098C411.99 203.876 414.547 206.856 419.31 207.629C421.894 208.049 425.277 207.586 426.773 206.608C427.293 206.268 428.391 205.279 429.212 204.41L430.706 202.83L431 204.565C431.408 206.975 432.384 207.721 435.161 207.746C436.42 207.757 438.119 207.607 438.937 207.412L440.425 207.058L438.939 206.823C436.328 206.412 436.284 206.117 436.499 190.644C436.605 183.048 436.522 176.222 436.316 175.475C435.24 171.586 428.2 168.891 422.328 170.12ZM499.109 170.123C490.035 172.411 484.399 181.838 485.915 192.191C487.713 204.469 499.625 211.305 510.215 206.135C519.161 201.768 522.92 188.635 517.986 178.985C516.513 176.104 513.053 172.79 510 171.336C506.968 169.893 502.152 169.356 499.109 170.123ZM295.474 171.499C299.996 173.88 302.529 180.046 302.529 188.672C302.529 193.641 301.918 196.899 300.331 200.391C298.189 205.103 295.367 207.21 291.198 207.21C284.301 207.21 279.858 199.941 279.873 188.68C279.883 181.557 281.28 176.791 284.296 173.597C287.39 170.321 291.7 169.512 295.474 171.499ZM466.915 171.553C471.583 174.059 474.427 181.961 473.843 190.805C473.245 199.87 469.496 206.271 464.334 207.044C458.404 207.931 454.647 204.903 452.123 197.204C450.725 192.936 450.693 184.478 452.06 180.133C453.755 174.745 456.399 171.718 460.281 170.719C462.668 170.105 464.689 170.359 466.915 171.553ZM507.883 171.759C509.682 172.868 511.641 175.661 512.982 179.028C513.829 181.153 513.937 182.203 513.952 188.458C513.968 195.21 513.918 195.636 512.712 198.91C511.043 203.442 508.08 206.576 505.034 207.032C497.093 208.22 492.143 201.992 491.627 190.165C491.295 182.545 492.615 177.42 495.863 173.73C498.962 170.208 504.022 169.378 507.883 171.759ZM161.326 171.852C162.842 173.331 163.741 175.533 170.413 194.122L174.82 206.398L173.423 210.12C171.219 215.993 168.439 221.612 167.487 222.121C165.933 222.951 164.644 222.646 163.137 221.094C160.858 218.748 158.433 219.385 158.433 222.33C158.433 224.482 159.883 225.574 162.737 225.572C167.7 225.568 169.014 223.679 175.344 207.442C176.442 204.627 178.165 200.014 179.174 197.193C185.033 180.8 188.064 173.271 189.347 171.927L190.67 170.541H187.305H183.939L184.91 171.572C186.53 173.292 186.201 175.733 183.269 183.766C178.774 196.078 177.814 198.485 177.419 198.421C177.207 198.387 176.102 195.699 174.964 192.448C168.286 173.381 168.216 173.1 169.732 171.43L170.538 170.541H165.26H159.981L161.326 171.852ZM193.068 170.743C193.068 170.854 193.639 171.24 194.338 171.601C195.036 171.961 195.827 172.664 196.095 173.164C196.363 173.663 196.719 176.793 196.887 180.119C197.26 187.521 197.974 189.243 201.395 190.995C203.278 191.96 204.014 192.081 207.809 192.05C211.141 192.024 212.619 191.81 214.447 191.091C215.74 190.582 216.86 190.165 216.934 190.165C217.009 190.165 217.009 193.328 216.934 197.193C216.806 203.844 216.746 204.274 215.825 205.192C215.29 205.726 214.232 206.388 213.474 206.663C212.326 207.08 213.384 207.168 219.792 207.187L227.488 207.21L225.704 206.402C222.319 204.869 222.357 205.064 222.357 189.117C222.357 173.336 222.434 172.839 225.069 171.53L226.633 170.754L223.319 170.629C221.497 170.561 218.514 170.561 216.692 170.629L213.378 170.754L214.684 171.469C216.772 172.61 217.012 173.68 217.012 181.813V189.207L214.802 190.155C213.02 190.92 211.988 191.073 209.479 190.947C205.792 190.762 204.446 189.975 203.009 187.17C202.175 185.542 202.047 184.635 202.049 180.369C202.052 174.251 202.488 172.501 204.196 171.747C204.895 171.438 205.468 171.041 205.468 170.863C205.468 170.686 202.678 170.541 199.268 170.541C195.858 170.541 193.068 170.632 193.068 170.743ZM232.833 170.712C232.833 170.806 233.496 171.273 234.305 171.75C236.59 173.095 236.743 174.288 236.596 189.652C236.45 204.983 236.457 204.947 233.313 206.331L231.336 207.201L239.033 207.183C245.437 207.167 246.498 207.08 245.351 206.663C244.592 206.388 243.534 205.726 242.999 205.192C242.072 204.267 242.019 203.865 241.891 196.703C241.785 190.835 241.879 189.105 242.318 188.827C242.628 188.632 246.356 188.469 250.603 188.465C256.385 188.46 258.521 188.602 259.107 189.029C259.825 189.553 259.871 190.144 259.662 196.175C259.383 204.238 259.093 205.147 256.43 206.319L254.426 207.201L262.122 207.206L269.819 207.21L268.058 206.413C264.815 204.943 264.902 205.42 264.902 189.024C264.902 178.903 265.053 174.089 265.395 173.341C265.666 172.747 266.436 172.019 267.105 171.723C267.775 171.428 268.322 171.041 268.322 170.863C268.322 170.686 265.484 170.552 262.015 170.566C256.967 170.586 255.868 170.692 256.508 171.099C258.682 172.482 258.958 172.924 259.353 175.66C259.782 178.628 259.913 186.31 259.552 187.25C259.379 187.702 257.554 187.8 250.68 187.731L242.026 187.643L241.896 181.545C241.743 174.416 242.133 172.545 243.966 171.599C244.663 171.24 245.233 170.854 245.233 170.743C245.233 170.632 242.443 170.541 239.033 170.541C235.623 170.541 232.833 170.618 232.833 170.712ZM313.398 170.912C313.524 171.116 314.208 171.523 314.918 171.816C316.993 172.673 317.133 173.894 316.986 189.833C316.836 206.038 317.005 205.243 313.432 206.546C311.824 207.132 312.194 207.169 319.632 207.176L327.543 207.183L325.627 206.45C322.119 205.109 321.742 202.623 324.48 198.884C325.5 197.491 329.396 192.133 333.138 186.977L339.942 177.604L340.056 190.068C340.187 204.508 340.095 205.012 337.073 206.38L335.239 207.21L342.936 207.216L350.632 207.221L348.452 206.208C347.253 205.651 346.105 204.837 345.9 204.399C345.439 203.413 345.112 179.869 345.507 176.134C345.798 173.386 346.384 172.406 348.519 171.099C349.186 170.691 348.109 170.586 343.042 170.566C339.106 170.55 336.736 170.701 336.736 170.967C336.736 171.202 336.991 171.394 337.303 171.394C338.125 171.394 339.571 173.124 339.897 174.498C340.195 175.753 340.403 175.431 330.312 189.312C328.35 192.01 325.899 195.418 324.866 196.884C323.832 198.351 322.809 199.55 322.592 199.55C322.123 199.55 322.102 180.761 322.566 176.138C322.888 172.932 323.066 172.622 325.461 171.099C326.099 170.693 324.948 170.586 319.714 170.566C316.105 170.552 313.271 170.707 313.398 170.912ZM524.735 170.861C524.631 171.037 524.415 173.292 524.254 175.873C524.093 178.454 523.865 180.902 523.747 181.313C523.315 182.812 524.394 182.011 524.897 180.459C526.098 176.754 529.183 172.367 531.171 171.539C531.94 171.218 532.569 170.862 532.569 170.748C532.569 170.405 524.938 170.515 524.735 170.861ZM535.038 171.396C535.808 171.864 536.668 172.775 536.949 173.42C537.31 174.251 537.463 178.777 537.473 188.902C537.488 205.089 537.53 204.866 534.139 206.402L532.355 207.21L540.035 207.22L547.715 207.229L545.809 206.269C544.76 205.741 543.664 204.829 543.373 204.243C542.984 203.46 542.842 199.398 542.837 188.978C542.83 173.501 542.999 172.222 545.162 171.402C545.761 171.175 546.251 170.888 546.251 170.765C546.251 170.641 543.413 170.542 539.945 170.542L533.638 170.544L535.038 171.396ZM547.534 170.748C547.534 170.862 548.196 171.232 549.004 171.569C550.803 172.318 552.675 174.782 554.868 179.286L556.531 182.699L556.296 179.286C556.167 177.409 555.949 174.674 555.81 173.207L555.559 170.541H551.547C549.34 170.541 547.534 170.634 547.534 170.748ZM561.385 171.099C561.831 171.379 562.697 172.022 563.309 172.53L564.424 173.452L564.559 187.674C564.65 197.174 564.538 202.426 564.224 203.49C563.757 205.066 563.066 205.672 560.575 206.684C559.524 207.112 561.18 207.185 569.768 207.088C579.476 206.979 580.423 206.9 582.689 206.008C585.559 204.878 588.413 201.952 588.835 199.706C588.985 198.907 589.03 197.029 588.935 195.534C588.537 189.306 583.641 186.325 573.81 186.325H569.768L569.779 181.313C569.792 174.93 570.184 173.214 571.972 171.714L573.37 170.541L566.973 170.566C561.848 170.586 560.737 170.692 561.385 171.099ZM592.588 171.099C594.979 172.62 595.1 172.85 595.453 176.541C595.871 180.911 595.894 195.874 595.49 200.718C595.166 204.603 594.49 205.717 591.885 206.663C590.737 207.08 591.795 207.168 598.203 207.187L605.899 207.21L604.139 206.413C600.896 204.943 600.982 205.42 600.982 189.024C600.982 179.012 601.135 174.085 601.469 173.354C601.737 172.768 602.603 171.982 603.393 171.608C604.183 171.234 604.83 170.84 604.83 170.734C604.83 170.628 601.896 170.552 598.31 170.566C593.096 170.586 591.949 170.693 592.588 171.099ZM145.052 171.8C149.021 173.598 150.959 179.314 150.919 189.098C150.893 195.324 150.262 198.857 148.591 202.125C145.464 208.24 137.073 208.909 132.977 203.369C130.762 200.374 130.583 199.222 130.724 188.869C130.849 179.652 130.894 179.207 131.909 177.226C133.08 174.938 135.578 172.477 137.634 171.585C139.559 170.748 142.948 170.847 145.052 171.8ZM394.184 171.554C396.215 172.401 398.2 175.03 399.217 178.22C400.324 181.691 400.777 191.011 400.068 195.711C399.075 202.295 395.783 206.535 391.25 207.07C386.805 207.593 383.08 205.409 381.149 201.147C380.179 199.007 380.135 198.496 380.135 189.312C380.135 180.182 380.183 179.616 381.11 177.739C383.781 172.329 389.525 169.612 394.184 171.554ZM431.229 192.404C431.226 200 430.843 201.744 428.71 203.872C426.124 206.453 422.822 206.832 419.851 204.889C417.558 203.391 416.786 197.964 418.398 194.672C419.312 192.805 420.382 191.97 425.032 189.5C426.678 188.626 428.602 187.46 429.307 186.909C430.013 186.359 430.734 185.906 430.911 185.903C431.087 185.901 431.23 188.826 431.229 192.404ZM580.239 188.292C582.863 189.653 584.099 192.394 584.068 196.781C584.039 200.784 582.935 203.338 580.534 204.951C577.79 206.796 573.34 206.771 571.16 204.901L569.982 203.89L569.829 195.484L569.676 187.078L574.105 187.243C577.521 187.37 578.924 187.61 580.239 188.292Z" fill="#FFF3E7"/>
</svg>
